<svg xmlns="http://www.w3.org/2000/svg" viewBox="0 0 133.45 89.69"><defs><style>.cls-1,.cls-2,.cls-3{fill:#8cc63f;}.cls-1{opacity:0.5;}.cls-2{opacity:0.6;}.cls-3{opacity:0.8;}</style></defs><title>bush</title><g id="Layer_2" data-name="Layer 2"><g id="Layer_1-2" data-name="Layer 1"><path class="cls-1" d="M.11,56.14l.29.23C.23,60.63,3.75,64.92,7.53,66.6c4.78,2.13,10.78.34,15.5-1.34,6.29,1.08,12.85,1.7,19.19,2.61a35.63,35.63,0,0,1-5.61,6.62,15.17,15.17,0,0,0-9.18-1.23C23.19,74,19.68,76.93,15.3,77c-.58,0-.77,1-.19,1.16l.21.06c2.73,3.45,6.78,7.21,11.48,6.61s7.86-4.53,10-8.49a.7.7,0,0,0,.08-.33,23.65,23.65,0,0,0,6.27-8c10.72,1.6,20.71,4.19,27.48,11.56A18.81,18.81,0,0,0,68.49,79a.25.25,0,0,0,0-.07c-5.7-4.68-16.83-4.35-20.11,3.32a.26.26,0,0,0,0,.24.6.6,0,0,0,.16.73.72.72,0,0,0,.47,1,19.19,19.19,0,0,0,9.1.39,17.9,17.9,0,0,0,4.33-1.49c1.52-.74,3.12-2.37,4.78-3a22.43,22.43,0,0,1,4.58.89,30,30,0,0,1,4.59,8.23.65.65,0,0,0,1.23-.44c-2.87-8.84-10-14.51-18.18-17.91a35.61,35.61,0,0,1-4.8-3.79s0-.08,0-.12c-1.22-2.93,0-5.86-1.68-8.83-1.82-3.16-5-5.25-7.72-7.57a.54.54,0,0,0-.29-.13s0-.09,0-.13c-.12-.45-.75-.41-.95-.09a.58.58,0,0,0-.13.14c-1.73,3.18-2.53,6.75-.74,10.09,2.18,4.08,6.65,5.74,10.73,7.24a31.84,31.84,0,0,0,2.47,2,57.19,57.19,0,0,0-7.58-2c-4-.77-8.13-1.24-12.23-1.68a.12.12,0,0,0,0-.08c-.57-1.14-1.23-2.35-2-3.56a.79.79,0,0,0,.13-.31c.62-4,.3-8.52-2.93-11.45s-8.08-2.56-12.22-2.41l-.4-.13a.5.5,0,0,0-.56.16h-.32a.72.72,0,0,0-.52,1.12c2,2.82,2.26,6.5,4.88,8.9,2.94,2.7,7.52,3.89,11.26,5.08.58.88,1.13,1.74,1.66,2.57-3.89-.42-7.77-.81-11.59-1.4a.73.73,0,0,0-.34-.55C16.64,59.66,9.88,49.62,1,55.94c0,0,0,.05-.06.07l-.44-.32A.29.29,0,0,0,.11,56.14Z"/><path class="cls-2" d="M81.05,19.43c2.86,3.85,3.34,7.52,3.42,12.22a15.52,15.52,0,0,0,.84,5.86c1.81,4.28,6.16,4.81,9.66,7.17.72,3.76,1.18,7.5,1.56,10.78-1.57,7.26-1.88,14.43.14,21.14a59.4,59.4,0,0,0-4.46-5.84c3.45-9.53-6.61-12.84-14.6-14.34a6.19,6.19,0,0,1-.75,1.45,7.51,7.51,0,0,1-.61.76,10,10,0,0,1-1.2,1c4.65,5.48,8.78,13.1,16.5,12.82,2.38,2.68,4.5,5.55,6.76,8.33A32,32,0,0,0,103,88.08c.27.31.82-.09.59-.44a36.94,36.94,0,0,1-5.52-12.27c.45-4.44,2.81-8.31,5.9-11.64a.77.77,0,0,0,.37.12,23.15,23.15,0,0,0,22.21-12.49.74.74,0,0,0-.82-1.09c-5.27,1.58-11.46-.53-16.42,2.18-4,2.18-5.67,7.21-7.13,11.23a20.69,20.69,0,0,0-4.66,8.91c-1.13-7.25,0-14.51,2.16-21.76,2.38-3.77,6.9-7.19,10.11-9.58,1.72.85,4.61.73,6.17.7a22.48,22.48,0,0,0,9.41-2.14c5.71-2.81,7.73-8.48,8-14.52a.72.72,0,0,0-1.07-.63c-4.87,2.44-10.73,1-15.5,4.29-3.61,2.49-4.76,6.82-7.31,10.16a.78.78,0,0,0-.62.33l-.15.19a.64.64,0,0,0-.1.5l-.29.31a.35.35,0,0,0,0,.42,48,48,0,0,0-7.73,7.07c2.09-6.29,4.83-12.55,7.4-18.77,3.92-.41,8.67-4.85,10.64-7.58,4-5.51,3.09-11.79,1.24-17.93a.63.63,0,0,0-1-.29c-3.59,4-9.1,5.92-12.31,10.3-3.84,5.24-.7,11.81-2,17.73a.41.41,0,0,0,.21.46,149.86,149.86,0,0,0-7.4,20.27,66.15,66.15,0,0,0-1.49-8.51.75.75,0,0,0,.27-.37c1.6-5,2.49-11.16,0-16.1C93.58,22,87,19.85,81.93,18.32,81.34,18.14,80.64,18.87,81.05,19.43Z"/><path class="cls-3" d="M55.06,16.84c.6,4.07,1.36,8.18,2.25,12.3-.34-.31-.7-.61-1.05-.91a.08.08,0,0,1,0,0,9.5,9.5,0,0,0-4.52-8.6c-2.43-1.45-6.28-1.77-7.5,1.39-2.51,6.51,6.69,10.9,11.75,8.23.54.4,1.07.81,1.59,1.24a173.54,173.54,0,0,0,5.74,20c-.54-.49-1.11-1-1.69-1.43a8.55,8.55,0,0,0-4.15-8.28c-2.33-1.33-6.25-1.91-7.91.77C48,44,49.17,47.36,51.17,49.23c3.36,3.15,6.54,1.12,10.53,1.23,0,0,.06,0,.1,0,.7.49,1.39,1,2.08,1.52a144.56,144.56,0,0,0,8,18.09,22.79,22.79,0,0,0-2.41-1.71.64.64,0,0,0,.08-.79c-2-3.17-4.77-6.68-8.89-6.71-2.4,0-5,1.21-5.7,3.63a5.72,5.72,0,0,0,2.94,6.46,7.53,7.53,0,0,0,4.48.71c2.41-.31,4.51-2.27,7-1.85a.21.21,0,0,0,.24-.13,25.9,25.9,0,0,1,3.26,2.2A110,110,0,0,0,85,89.6c.2.24.52,0,.37-.29-1.92-3.17-3.82-6.31-5.69-9.45.06-.71.14-1.43.22-2.14a.26.26,0,0,0,.36-.15,5.64,5.64,0,0,1,.4-1.07.65.65,0,0,0,.42-.78c1-1.58,2.55-2.74,3.79-4.12a9.74,9.74,0,0,0,1-1.26,7.16,7.16,0,0,0,.45-.87,5.85,5.85,0,0,0,.44-1.57,7.31,7.31,0,0,0,.07-.84c0-2.16-1.21-5.92-3.76-6.34s-4.53,2.82-5.18,4.81c-1.1,3.32-.11,6.76,1.49,9.75-.11,1.2-.2,2.41-.24,3.61-3.31-5.59-6.49-11.2-9.32-17a38.9,38.9,0,0,1,.93-4c2.49-2.45,6.2-4.25,7.48-7.66.9-2.39.49-6.24-2-7.55-2-1-4.18.48-5.26,2.17-2,3.07-1.57,7.54-.73,10.89a.54.54,0,0,1,0,.11,24.38,24.38,0,0,0-1,4.76c-1.46-3.09-2.84-6.25-4.07-9.51C63.57,47,62.19,42.83,61,38.63c.18-.62.36-1.23.55-1.84a.58.58,0,0,0,.64.1,14.5,14.5,0,0,0,7.69-7.11c1.07-2.39,1.66-6.72-1-8.41-2.41-1.54-5.36.68-6.69,2.64-2.21,3.25-1.87,7.35-1.26,11-.15.62-.3,1.24-.41,1.86a167.71,167.71,0,0,1-4.37-20.7A12.74,12.74,0,0,0,60.61,6.09C60.45,2.9,58.7-.44,55,.05,47.27,1.07,49.57,14.14,55.06,16.84Z"/></g></g></svg>