<svg xmlns="http://www.w3.org/2000/svg" viewBox="0 0 30 20.5"><defs><style>.cls-1{fill:#fe9f1c;}</style></defs><title>Asset 1</title><g id="Layer_2" data-name="Layer 2"><g id="Layer_1-2" data-name="Layer 1"><path class="cls-1" d="M28.68,2.46H1.32A1.28,1.28,0,0,1,0,1.23,1.28,1.28,0,0,1,1.32,0H28.68A1.28,1.28,0,0,1,30,1.23,1.28,1.28,0,0,1,28.68,2.46Z"/><path class="cls-1" d="M28.68,11.48H1.32A1.23,1.23,0,1,1,1.32,9H28.68a1.23,1.23,0,1,1,0,2.46Z"/><path class="cls-1" d="M28.68,20.5H1.32a1.23,1.23,0,1,1,0-2.46H28.68a1.23,1.23,0,1,1,0,2.46Z"/></g></g></svg>