<svg xmlns="http://www.w3.org/2000/svg" viewBox="0 0 350 17.39"><defs><style>.cls-1{fill:#39b54a;}.cls-2,.cls-3{fill:none;stroke:#39b54a;stroke-miterlimit:10;}.cls-3{stroke-dasharray:1 1.99;}</style></defs><title>leaf-bar</title><g id="Layer_2" data-name="Layer 2"><g id="Layer_1-2" data-name="Layer 1"><path class="cls-1" d="M40.23,11.69c.2.09.42.17.62.27a4.25,4.25,0,0,0,5.53-1.28l2.51-3.22a6.67,6.67,0,0,0-6-2.13c-2.56.64-3.43,2.71-4,5l-.19-.07a1.59,1.59,0,0,1,0-.48c.79-4.56,5-6.38,8.9-3.84.66.43,1.27,1,1.89,1.44a2.83,2.83,0,0,1,.39.45c-1.47.41-2.17,1.52-2.91,2.65a4.65,4.65,0,0,1-6.56,1.66,3.81,3.81,0,0,1-.32-.24Z"/><path class="cls-1" d="M44.76,8.15c-3.63.72-5.77,3.18-7.4,6.26C37.38,11.81,42,7.86,44.76,8.15Z"/><path class="cls-1" d="M16.48,14.49a2.45,2.45,0,0,1-.9-.18A7.79,7.79,0,0,1,12.9,12.2l-.11-.13.41-.19A6.76,6.76,0,0,1,16.42,11h0a1.9,1.9,0,0,1,1.91,1.87L19,13l-.11.2s-.06.13-.16.1c-.4-.12-.55.08-.8.47A1.74,1.74,0,0,1,16.48,14.49Zm-3.29-2.34a7.1,7.1,0,0,0,2.48,1.93,1.66,1.66,0,0,0,2.07-.46,1.36,1.36,0,0,1,.54-.55l-.17,0V13c-.14-1.14-.69-1.71-1.69-1.75a6.56,6.56,0,0,0-3.11.9Z"/><path class="cls-1" d="M34.08,2.84,31.73,0c-.77.94-1.59,1.92-2.39,2.92a4.78,4.78,0,0,0,0,6.35c.39.48.8.94,1.22,1.39a5.72,5.72,0,0,1,.4.46,7.69,7.69,0,0,0,0,1.59,4.82,4.82,0,0,0,.4,1.62l.1.19a1.74,1.74,0,0,0,.11.18,1.09,1.09,0,0,0,.13.17l.14.16a1,1,0,0,0,.16.14.57.57,0,0,0,.18.12.84.84,0,0,0,.19.09l.2,0a1.12,1.12,0,0,1-.32-.24l-.13-.14a1.53,1.53,0,0,1-.11-.16l-.1-.16-.08-.17a2.67,2.67,0,0,1-.14-.36,7,7,0,0,1-.28-1.52c0-.32,0-.64,0-1a1.17,1.17,0,0,0,0,.11,11.4,11.4,0,0,1,.08-1.95l.09-.58c0-.19.07-.39.12-.59V8.64c.09-.35.18-.72.3-1.07l.26-.83.05.87c0,.37,0,.74,0,1.09v.09a.49.49,0,0,1,0,.12v.45a5.42,5.42,0,0,1,0,.57c0,.46,0,.92,0,1.39a8.94,8.94,0,0,1,.89-1.08,16.53,16.53,0,0,0,1.08-1.3A4.79,4.79,0,0,0,34.08,2.84Z"/><path class="cls-1" d="M26,13.65a.12.12,0,0,1-.09,0c-.44-.57-.86-.44-1.57-.16A3,3,0,0,1,20.79,12a12.36,12.36,0,0,1-1.56-5.25l0-.16.63.11A10.78,10.78,0,0,1,24.9,8.47h0c1.39,1.07,1.63,2.48.73,4.19l.73.82-.14.07-.1,0A.24.24,0,0,1,26,13.65Zm-6.5-6.77a11.67,11.67,0,0,0,1.51,5,2.74,2.74,0,0,0,3.24,1.35,1.6,1.6,0,0,1,1.45-.12l-.36-.4.05-.07c.89-1.66.69-3-.62-4a10.8,10.8,0,0,0-5-1.73Z"/><path class="cls-1" d="M20.88,8.58c.2.23.39.46.6.68s.4.45.61.67c.41.43.84.86,1.28,1.26s.89.8,1.36,1.18l.36.27.36.27c.24.18.5.33.75.51a9.89,9.89,0,0,1-1.58-.9,13,13,0,0,1-1.42-1.15A14.22,14.22,0,0,1,22,10.05,11,11,0,0,1,20.88,8.58Z"/><path class="cls-1" d="M73.31,5.62c0-1.26,0-2.52,0-3.67-1.18.22-2.44.45-3.69.7a4.75,4.75,0,0,0-4,4.86c0,.61,0,1.23,0,1.84,0,.2,0,.41,0,.6a7.92,7.92,0,0,0-1,1.19,4.7,4.7,0,0,0-.73,1.49l0,.2a1.49,1.49,0,0,0,0,.21,1.49,1.49,0,0,0,0,.21v.21a1.52,1.52,0,0,0,0,.21,1.66,1.66,0,0,0,.06.21c0,.06.06.12.09.19a.83.83,0,0,0,.12.16,1,1,0,0,1-.09-.38c0-.07,0-.13,0-.19a1.11,1.11,0,0,1,0-.19l0-.19a1.33,1.33,0,0,0,0-.19c0-.12.08-.24.12-.36A7,7,0,0,1,65,11.4c.19-.26.38-.51.58-.76l0,.12a11.33,11.33,0,0,1,1.31-1.44l.44-.39c.14-.12.29-.25.46-.37l.06,0q.44-.33.9-.63l.73-.46-.51.69c-.22.3-.46.57-.69.84L68.17,9a.39.39,0,0,1-.08.1l-.1.11-.18.23c-.13.14-.25.29-.37.43-.29.35-.58.7-.87,1.08a8.52,8.52,0,0,1,1.37-.26c.56-.08,1.11-.17,1.66-.3A4.76,4.76,0,0,0,73.31,5.62Z"/><path class="cls-1" d="M59.11,13.65a.12.12,0,0,1-.09,0c-.44-.57-.86-.44-1.57-.16A3,3,0,0,1,53.91,12a12.5,12.5,0,0,1-1.56-5.25l0-.16L53,6.7A10.82,10.82,0,0,1,58,8.47h0c1.38,1.07,1.62,2.48.72,4.19l.74.82-.14.07-.11,0A.21.21,0,0,1,59.11,13.65Zm-6.5-6.77a11.81,11.81,0,0,0,1.51,5,2.74,2.74,0,0,0,3.24,1.35,1.62,1.62,0,0,1,1.46-.12l-.36-.4,0-.07c.89-1.66.69-3-.62-4a10.72,10.72,0,0,0-5-1.73Z"/><path class="cls-1" d="M54,8.58l.6.68c.2.23.4.45.61.67.42.43.84.86,1.28,1.26s.9.8,1.37,1.18l.35.27.37.27c.23.18.5.33.74.51a9.89,9.89,0,0,1-1.58-.9,12.87,12.87,0,0,1-1.41-1.15,13.1,13.1,0,0,1-1.26-1.32A12,12,0,0,1,54,8.58Z"/><path class="cls-1" d="M75.16,13.31a2.3,2.3,0,0,1-1.36-.52l-.59.39L73.13,13a.15.15,0,0,1,0-.19c.36-.2.33-.44.23-.89a1.9,1.9,0,0,1,1.24-2.09A7.81,7.81,0,0,1,78,9.33h.16L78,9.76a6.73,6.73,0,0,1-1.57,3h0A1.89,1.89,0,0,1,75.16,13.31Zm-1.35-.81.07.05a1.67,1.67,0,0,0,2.42,0h0a6.68,6.68,0,0,0,1.52-2.87l0-.12a7.2,7.2,0,0,0-3.12.46,1.66,1.66,0,0,0-1.11,1.8,1.36,1.36,0,0,1,0,.77Z"/><path class="cls-1" d="M106.71,11.69c.21.09.43.17.63.27a4.26,4.26,0,0,0,5.53-1.28l2.51-3.22a6.67,6.67,0,0,0-5.95-2.13c-2.56.64-3.43,2.71-4,5l-.19-.07a1.59,1.59,0,0,1,0-.48c.79-4.56,5-6.38,8.9-3.84.66.43,1.27,1,1.89,1.44a2.83,2.83,0,0,1,.39.45c-1.47.41-2.17,1.52-2.91,2.65a4.65,4.65,0,0,1-6.56,1.66,2.67,2.67,0,0,1-.32-.24Z"/><path class="cls-1" d="M111.25,8.15c-3.64.72-5.78,3.18-7.4,6.26C103.87,11.81,108.49,7.86,111.25,8.15Z"/><path class="cls-1" d="M83,14.49a2.45,2.45,0,0,1-.9-.18,7.79,7.79,0,0,1-2.68-2.11l-.12-.13.41-.19A6.83,6.83,0,0,1,82.91,11h0a1.9,1.9,0,0,1,1.91,1.87l.68.16-.1.2s-.07.13-.16.1c-.4-.12-.55.08-.81.47A1.72,1.72,0,0,1,83,14.49Zm-3.3-2.34a7.22,7.22,0,0,0,2.49,1.93,1.66,1.66,0,0,0,2.07-.46,1.41,1.41,0,0,1,.53-.55l-.16,0V13c-.14-1.14-.69-1.71-1.69-1.75a6.56,6.56,0,0,0-3.11.9Z"/><path class="cls-1" d="M100.57,2.84C99.75,1.87,99,.89,98.22,0c-.77.94-1.59,1.92-2.39,2.92a4.79,4.79,0,0,0,0,6.35c.39.48.81.94,1.23,1.39a5.58,5.58,0,0,1,.39.46,8.45,8.45,0,0,0,0,1.59,4.82,4.82,0,0,0,.4,1.62l.1.19a1.74,1.74,0,0,0,.11.18l.12.17.15.16a.7.7,0,0,0,.16.14.66.66,0,0,0,.17.12,1.63,1.63,0,0,0,.19.09l.21,0a1.12,1.12,0,0,1-.32-.24l-.13-.14a1.53,1.53,0,0,1-.11-.16l-.1-.16-.09-.17a2.6,2.6,0,0,1-.13-.36,6.47,6.47,0,0,1-.28-1.52c0-.32,0-.64,0-1a.37.37,0,0,0,0,.11A11.4,11.4,0,0,1,98,9.88l.09-.58c0-.19.06-.39.11-.59l0-.07c.09-.35.18-.72.29-1.07l.27-.83,0,.87c0,.37,0,.74,0,1.09v.09a.49.49,0,0,1,0,.12v.45c0,.19,0,.38,0,.57,0,.46,0,.92,0,1.39a8.94,8.94,0,0,1,.89-1.08,16.53,16.53,0,0,0,1.08-1.3A4.79,4.79,0,0,0,100.57,2.84Z"/><path class="cls-1" d="M92.48,13.65a.12.12,0,0,1-.09,0c-.44-.57-.86-.44-1.57-.16A3,3,0,0,1,87.28,12a12.37,12.37,0,0,1-1.57-5.25l0-.16.63.11a10.78,10.78,0,0,1,5.07,1.77h0c1.39,1.07,1.63,2.48.73,4.19l.73.82-.14.07-.1,0A.24.24,0,0,1,92.48,13.65ZM86,6.88a12,12,0,0,0,1.51,5,2.76,2.76,0,0,0,3.25,1.35,1.6,1.6,0,0,1,1.45-.12l-.36-.4,0-.07c.9-1.66.7-3-.61-4a10.8,10.8,0,0,0-5-1.73Z"/><path class="cls-1" d="M87.37,8.58c.2.23.39.46.6.68s.4.45.61.67c.41.43.84.86,1.28,1.26s.89.8,1.36,1.18l.36.27.36.27c.24.18.5.33.75.51a9.89,9.89,0,0,1-1.58-.9,13,13,0,0,1-1.42-1.15,14.22,14.22,0,0,1-1.25-1.32A11,11,0,0,1,87.37,8.58Z"/><path class="cls-1" d="M139.79,5.62c0-1.26,0-2.52,0-3.67-1.18.22-2.43.45-3.68.7a4.77,4.77,0,0,0-4,4.86c0,.61,0,1.23.05,1.84a4,4,0,0,1,0,.6,9.21,9.21,0,0,0-1.05,1.19,4.9,4.9,0,0,0-.72,1.49l0,.2,0,.21c0,.07,0,.14,0,.21v.21a1.52,1.52,0,0,0,0,.21.83.83,0,0,0,.06.21c0,.06.06.12.08.19a1.83,1.83,0,0,0,.13.16,1,1,0,0,1-.09-.38c0-.07,0-.13,0-.19a1.11,1.11,0,0,1,0-.19l0-.19a1.33,1.33,0,0,0,.05-.19c0-.12.08-.24.12-.36a7,7,0,0,1,.76-1.33c.19-.26.38-.51.58-.76l0,.12a11.33,11.33,0,0,1,1.31-1.44l.44-.39c.14-.12.29-.25.46-.37l.06,0q.44-.33.9-.63l.73-.46-.51.69c-.23.3-.46.57-.69.84l-.06.06-.08.1-.11.11-.18.23-.36.43c-.3.35-.58.7-.87,1.08a8.52,8.52,0,0,1,1.37-.26c.56-.08,1.11-.17,1.65-.3A4.74,4.74,0,0,0,139.79,5.62Z"/><path class="cls-1" d="M125.6,13.65a.12.12,0,0,1-.09,0c-.44-.57-.86-.44-1.57-.16A3,3,0,0,1,120.4,12a12.36,12.36,0,0,1-1.56-5.25l0-.16.62.11a10.82,10.82,0,0,1,5.08,1.77h0c1.38,1.07,1.62,2.48.72,4.19l.73.82-.13.07-.11,0A.24.24,0,0,1,125.6,13.65Zm-6.5-6.77a11.81,11.81,0,0,0,1.51,5,2.74,2.74,0,0,0,3.24,1.35,1.61,1.61,0,0,1,1.45-.12l-.35-.4,0-.07c.89-1.66.69-3-.62-4a10.76,10.76,0,0,0-5-1.73Z"/><path class="cls-1" d="M120.49,8.58c.2.23.39.46.6.68s.4.45.61.67c.42.43.84.86,1.28,1.26s.9.8,1.36,1.18l.36.27.37.27c.23.18.5.33.74.51a9.89,9.89,0,0,1-1.58-.9,12,12,0,0,1-1.41-1.15,13.1,13.1,0,0,1-1.26-1.32A11,11,0,0,1,120.49,8.58Z"/><path class="cls-1" d="M141.65,13.31a2.28,2.28,0,0,1-1.36-.52l-.59.39-.08-.22a.15.15,0,0,1,0-.19c.36-.2.33-.44.23-.89a1.89,1.89,0,0,1,1.24-2.09,7.78,7.78,0,0,1,3.39-.46h.16l-.15.43a6.73,6.73,0,0,1-1.57,3h0A1.89,1.89,0,0,1,141.65,13.31Zm-1.35-.81.06.05a1.68,1.68,0,0,0,2.43,0h0a6.56,6.56,0,0,0,1.51-2.87l0-.12a7.16,7.16,0,0,0-3.11.46,1.65,1.65,0,0,0-1.11,1.8,1.36,1.36,0,0,1,0,.77Z"/><path class="cls-1" d="M173.2,11.69c.21.09.42.17.63.27a4.24,4.24,0,0,0,5.52-1.28c.83-1,1.65-2.1,2.52-3.22a6.68,6.68,0,0,0-6-2.13c-2.56.64-3.43,2.71-4,5l-.2-.07a2,2,0,0,1,0-.48c.78-4.56,5-6.38,8.9-3.84.66.43,1.27,1,1.89,1.44a3.47,3.47,0,0,1,.39.45c-1.47.41-2.17,1.52-2.92,2.65a4.64,4.64,0,0,1-6.55,1.66,2.67,2.67,0,0,1-.32-.24Z"/><path class="cls-1" d="M177.74,8.15c-3.64.72-5.78,3.18-7.4,6.26C170.36,11.81,175,7.86,177.74,8.15Z"/><path class="cls-1" d="M149.46,14.49a2.45,2.45,0,0,1-.9-.18,7.82,7.82,0,0,1-2.69-2.11l-.11-.13.41-.19A6.83,6.83,0,0,1,149.4,11h0a1.88,1.88,0,0,1,1.9,1.87L152,13l-.1.2s-.07.13-.17.1c-.39-.12-.54.08-.8.47A1.72,1.72,0,0,1,149.46,14.49Zm-3.3-2.34a7.22,7.22,0,0,0,2.49,1.93,1.66,1.66,0,0,0,2.07-.46,1.41,1.41,0,0,1,.53-.55l-.17,0V13c-.13-1.14-.68-1.71-1.68-1.75a6.53,6.53,0,0,0-3.11.9Z"/><path class="cls-1" d="M167.06,2.84c-.82-1-1.62-1.95-2.36-2.84-.76.94-1.59,1.92-2.38,2.92a4.79,4.79,0,0,0,0,6.35c.39.48.81.94,1.23,1.39a5.58,5.58,0,0,1,.39.46,7.69,7.69,0,0,0,0,1.59,4.59,4.59,0,0,0,.4,1.62l.1.19a1.74,1.74,0,0,0,.11.18l.12.17.15.16a.54.54,0,0,0,.16.14.66.66,0,0,0,.17.12,1.63,1.63,0,0,0,.19.09l.2,0a1.23,1.23,0,0,1-.31-.24l-.13-.14a1.53,1.53,0,0,1-.11-.16l-.1-.16-.09-.17c-.06-.12-.09-.24-.14-.36a7,7,0,0,1-.27-1.52c0-.32,0-.64,0-1a.37.37,0,0,0,0,.11,11.4,11.4,0,0,1,.08-1.95l.09-.58c0-.19.06-.39.11-.59l0-.07c.09-.35.18-.72.29-1.07l.27-.83,0,.87c0,.37,0,.74,0,1.09v.09s0,.08,0,.12v1c0,.46,0,.92,0,1.39a9,9,0,0,1,.9-1.08c.37-.42.75-.85,1.08-1.3A4.79,4.79,0,0,0,167.06,2.84Z"/><path class="cls-1" d="M159,13.65a.09.09,0,0,1-.08,0c-.44-.57-.87-.44-1.58-.16A3,3,0,0,1,153.77,12a12.37,12.37,0,0,1-1.57-5.25l0-.16.62.11a10.82,10.82,0,0,1,5.08,1.77h0c1.38,1.07,1.63,2.48.73,4.19l.73.82-.14.07-.1,0A.24.24,0,0,1,159,13.65Zm-6.5-6.77a12,12,0,0,0,1.51,5,2.76,2.76,0,0,0,3.25,1.35,1.6,1.6,0,0,1,1.45-.12l-.36-.4,0-.07c.9-1.66.7-3-.62-4a10.72,10.72,0,0,0-5-1.73Z"/><path class="cls-1" d="M153.86,8.58c.2.23.39.46.59.68s.41.45.61.67c.42.43.84.86,1.29,1.26s.89.8,1.36,1.18l.35.27.37.27c.24.18.5.33.75.51a9.47,9.47,0,0,1-1.58-.9,13,13,0,0,1-1.42-1.15,13,13,0,0,1-1.25-1.32A11,11,0,0,1,153.86,8.58Z"/><path class="cls-1" d="M206.28,5.62c0-1.26,0-2.52,0-3.67-1.18.22-2.43.45-3.68.7a4.77,4.77,0,0,0-4,4.86c0,.61,0,1.23,0,1.84,0,.2,0,.41,0,.6a9.21,9.21,0,0,0-1,1.19,4.68,4.68,0,0,0-.72,1.49l-.05.2a1.52,1.52,0,0,0,0,.21c0,.07,0,.14,0,.21v.21a1.52,1.52,0,0,0,0,.21.83.83,0,0,0,.06.21c0,.06.05.12.08.19a1.83,1.83,0,0,0,.13.16,1,1,0,0,1-.09-.38,1.28,1.28,0,0,1,0-.19c0-.07,0-.13,0-.19l0-.19c0-.06,0-.13.05-.19a2.53,2.53,0,0,1,.12-.36A7,7,0,0,1,198,11.4c.18-.26.38-.51.58-.76l0,.12a10.63,10.63,0,0,1,1.31-1.44l.44-.39c.14-.12.29-.25.46-.37l.06,0q.43-.33.9-.63l.73-.46-.52.69c-.22.3-.46.57-.69.84l0,.06-.08.1-.11.11-.18.23c-.12.14-.24.29-.37.43-.29.35-.57.7-.86,1.08a8.52,8.52,0,0,1,1.37-.26c.55-.08,1.11-.17,1.65-.3A4.74,4.74,0,0,0,206.28,5.62Z"/><path class="cls-1" d="M192.09,13.65a.12.12,0,0,1-.09,0c-.44-.57-.86-.44-1.57-.16A3,3,0,0,1,186.89,12a12.36,12.36,0,0,1-1.56-5.25l0-.16.63.11A10.86,10.86,0,0,1,191,8.47h0c1.38,1.07,1.62,2.48.72,4.19l.73.82-.14.07-.1,0A.24.24,0,0,1,192.09,13.65Zm-6.5-6.77a11.81,11.81,0,0,0,1.51,5,2.74,2.74,0,0,0,3.24,1.35,1.6,1.6,0,0,1,1.45-.12l-.36-.4,0-.07c.89-1.66.69-3-.62-4a10.76,10.76,0,0,0-5-1.73Z"/><path class="cls-1" d="M187,8.58c.2.23.39.46.6.68s.4.45.61.67c.41.43.84.86,1.28,1.26s.9.8,1.36,1.18l.36.27.36.27c.24.18.5.33.75.51a9.89,9.89,0,0,1-1.58-.9,13,13,0,0,1-1.42-1.15,14.22,14.22,0,0,1-1.25-1.32A11,11,0,0,1,187,8.58Z"/><path class="cls-1" d="M208.14,13.31a2.33,2.33,0,0,1-1.37-.52l-.58.39-.08-.22a.15.15,0,0,1,0-.19c.36-.2.33-.44.22-.89a1.91,1.91,0,0,1,1.25-2.09A7.76,7.76,0,0,1,211,9.33h.17l-.15.43a6.84,6.84,0,0,1-1.57,3h0A1.89,1.89,0,0,1,208.14,13.31Zm-1.36-.81.07.05a1.68,1.68,0,0,0,2.43,0h0a6.67,6.67,0,0,0,1.51-2.87l0-.12a7.16,7.16,0,0,0-3.11.46,1.65,1.65,0,0,0-1.11,1.8,1.36,1.36,0,0,1,0,.77Z"/><path class="cls-1" d="M239.69,11.69c.21.09.42.17.63.27a4.24,4.24,0,0,0,5.52-1.28c.83-1,1.65-2.1,2.52-3.22a6.68,6.68,0,0,0-6-2.13c-2.56.64-3.43,2.71-4,5l-.2-.07a2,2,0,0,1,0-.48c.78-4.56,5-6.38,8.9-3.84.66.43,1.27,1,1.89,1.44a3.47,3.47,0,0,1,.39.45c-1.47.41-2.17,1.52-2.92,2.65a4.65,4.65,0,0,1-6.56,1.66,3.65,3.65,0,0,1-.31-.24Z"/><path class="cls-1" d="M244.22,8.15c-3.63.72-5.77,3.18-7.39,6.26C236.85,11.81,241.46,7.86,244.22,8.15Z"/><path class="cls-1" d="M216,14.49a2.45,2.45,0,0,1-.9-.18,7.82,7.82,0,0,1-2.69-2.11l-.11-.13.41-.19a6.83,6.83,0,0,1,3.23-.92h0a1.89,1.89,0,0,1,1.9,1.87l.69.16-.1.2s-.07.13-.17.1c-.39-.12-.54.08-.8.47A1.72,1.72,0,0,1,216,14.49Zm-3.3-2.34a7.13,7.13,0,0,0,2.49,1.93,1.66,1.66,0,0,0,2.07-.46,1.41,1.41,0,0,1,.53-.55l-.17,0V13c-.13-1.14-.68-1.71-1.68-1.75a6.56,6.56,0,0,0-3.12.9Z"/><path class="cls-1" d="M233.54,2.84,231.19,0c-.76.94-1.59,1.92-2.38,2.92a4.79,4.79,0,0,0,0,6.35c.39.48.81.94,1.23,1.39a5.58,5.58,0,0,1,.39.46,8.46,8.46,0,0,0,0,1.59,4.83,4.83,0,0,0,.41,1.62l.09.19a.94.94,0,0,0,.12.18l.12.17.15.16a.54.54,0,0,0,.16.14.66.66,0,0,0,.17.12,1.63,1.63,0,0,0,.19.09l.2,0a1.23,1.23,0,0,1-.31-.24.83.83,0,0,1-.13-.14,1.67,1.67,0,0,1-.12-.16l-.1-.16c0-.06,0-.12-.08-.17s-.09-.24-.14-.36a7.69,7.69,0,0,1-.28-1.52q0-.48,0-1s0,.08,0,.11A12.5,12.5,0,0,1,231,9.88L231,9.3c0-.19.06-.39.11-.59l0-.07c.09-.35.18-.72.29-1.07l.27-.83.05.87c0,.37,0,.74,0,1.09V9.93c0,.46,0,.92,0,1.39a8.94,8.94,0,0,1,.89-1.08,16.67,16.67,0,0,0,1.09-1.3A4.8,4.8,0,0,0,233.54,2.84Z"/><path class="cls-1" d="M225.45,13.65a.09.09,0,0,1-.08,0c-.44-.57-.87-.44-1.58-.16A3,3,0,0,1,220.26,12a12.37,12.37,0,0,1-1.57-5.25l0-.16.62.11a10.82,10.82,0,0,1,5.08,1.77h0c1.38,1.07,1.63,2.48.72,4.19l.74.82-.14.07-.1,0A.27.27,0,0,1,225.45,13.65ZM219,6.88a12,12,0,0,0,1.51,5,2.75,2.75,0,0,0,3.25,1.35,1.6,1.6,0,0,1,1.45-.12l-.36-.4,0-.07c.9-1.66.69-3-.62-4a10.72,10.72,0,0,0-5-1.73Z"/><path class="cls-1" d="M220.35,8.58c.19.23.39.46.59.68s.41.45.61.67c.42.43.84.86,1.28,1.26s.9.8,1.37,1.18l.35.27.37.27c.24.18.5.33.75.51a9.47,9.47,0,0,1-1.58-.9,12.09,12.09,0,0,1-1.42-1.15,14.32,14.32,0,0,1-1.26-1.32A11.93,11.93,0,0,1,220.35,8.58Z"/><path class="cls-1" d="M272.77,5.62c0-1.26,0-2.52,0-3.67-1.18.22-2.43.45-3.68.7a4.77,4.77,0,0,0-4,4.86c0,.61,0,1.23.05,1.84,0,.2,0,.41,0,.6a8.52,8.52,0,0,0-1.05,1.19,4.92,4.92,0,0,0-.73,1.49l0,.2a.76.76,0,0,0,0,.21c0,.07,0,.14,0,.21v.21c0,.07,0,.14,0,.21a.83.83,0,0,0,.06.21c0,.06.05.12.08.19a1.83,1.83,0,0,0,.13.16,1,1,0,0,1-.09-.38.62.62,0,0,1,0-.19,1.15,1.15,0,0,1,0-.19l0-.19a1.33,1.33,0,0,1,.05-.19,2.53,2.53,0,0,1,.12-.36,7,7,0,0,1,.76-1.33c.18-.26.38-.51.58-.76a.56.56,0,0,1,0,.12,11.4,11.4,0,0,1,1.32-1.44l.43-.39c.15-.12.3-.25.47-.37l.05,0c.3-.22.6-.43.91-.63l.73-.46-.52.69c-.22.3-.46.57-.69.84l-.05.06-.09.1-.1.11-.18.23c-.12.14-.24.29-.37.43-.29.35-.58.7-.86,1.08a8.52,8.52,0,0,1,1.37-.26c.55-.08,1.11-.17,1.65-.3A4.74,4.74,0,0,0,272.77,5.62Z"/><path class="cls-1" d="M258.58,13.65a.12.12,0,0,1-.09,0c-.44-.57-.86-.44-1.57-.16A3,3,0,0,1,253.38,12a12.37,12.37,0,0,1-1.57-5.25l0-.16.63.11a10.78,10.78,0,0,1,5.07,1.77h0c1.39,1.07,1.63,2.48.73,4.19l.73.82-.14.07-.1,0A.24.24,0,0,1,258.58,13.65Zm-6.51-6.77a12,12,0,0,0,1.51,5,2.76,2.76,0,0,0,3.25,1.35,1.6,1.6,0,0,1,1.45-.12l-.36-.4,0-.07c.9-1.66.7-3-.61-4a10.8,10.8,0,0,0-5-1.73Z"/><path class="cls-1" d="M253.47,8.58c.2.23.39.46.6.68s.4.45.61.67c.41.43.84.86,1.28,1.26s.89.8,1.36,1.18l.36.27.36.27c.24.18.5.33.75.51a9.89,9.89,0,0,1-1.58-.9,13,13,0,0,1-1.42-1.15,14.22,14.22,0,0,1-1.25-1.32A11,11,0,0,1,253.47,8.58Z"/><path class="cls-1" d="M274.62,13.31a2.33,2.33,0,0,1-1.36-.52l-.59.39L272.6,13a.14.14,0,0,1,0-.19c.36-.2.32-.44.22-.89a1.91,1.91,0,0,1,1.25-2.09,7.76,7.76,0,0,1,3.38-.46h.17l-.15.43a6.75,6.75,0,0,1-1.58,3h0A1.88,1.88,0,0,1,274.62,13.31Zm-1.35-.81.07.05a1.68,1.68,0,0,0,2.43,0h0a6.67,6.67,0,0,0,1.51-2.87l0-.12a7.16,7.16,0,0,0-3.11.46,1.65,1.65,0,0,0-1.11,1.8,1.36,1.36,0,0,1,0,.77Z"/><path class="cls-1" d="M306.18,11.69c.21.09.42.17.62.27a4.25,4.25,0,0,0,5.53-1.28c.83-1,1.65-2.1,2.52-3.22a6.68,6.68,0,0,0-6-2.13c-2.56.64-3.44,2.71-4,5l-.2-.07a2.67,2.67,0,0,1,0-.48c.79-4.56,5-6.38,8.91-3.84.66.43,1.26,1,1.89,1.44a2.88,2.88,0,0,1,.38.45c-1.46.41-2.16,1.52-2.91,2.65a4.65,4.65,0,0,1-6.56,1.66c-.11-.07-.21-.16-.32-.24Z"/><path class="cls-1" d="M310.71,8.15c-3.63.72-5.77,3.18-7.39,6.26C303.34,11.81,308,7.86,310.71,8.15Z"/><path class="cls-1" d="M282.44,14.49a2.41,2.41,0,0,1-.9-.18,7.82,7.82,0,0,1-2.69-2.11l-.11-.13.41-.19a6.83,6.83,0,0,1,3.23-.92h0a1.9,1.9,0,0,1,1.9,1.87L285,13l-.1.2s-.07.13-.17.1c-.39-.12-.55.08-.8.47A1.73,1.73,0,0,1,282.44,14.49Zm-3.3-2.34a7.13,7.13,0,0,0,2.49,1.93,1.66,1.66,0,0,0,2.07-.46,1.41,1.41,0,0,1,.53-.55l-.17,0V13c-.13-1.14-.68-1.71-1.68-1.75a6.56,6.56,0,0,0-3.12.9Z"/><path class="cls-1" d="M300,2.84,297.68,0c-.76.94-1.59,1.92-2.39,2.92a4.8,4.8,0,0,0,0,6.35c.39.48.81.94,1.23,1.39a5.58,5.58,0,0,1,.39.46,8.46,8.46,0,0,0-.05,1.59,5.07,5.07,0,0,0,.4,1.62l.1.19a.94.94,0,0,0,.12.18l.12.17.14.16a1,1,0,0,0,.16.14.94.94,0,0,0,.18.12,1.63,1.63,0,0,0,.19.09l.2,0a1.34,1.34,0,0,1-.44-.38,1.67,1.67,0,0,1-.12-.16l-.1-.16c0-.06,0-.12-.08-.17s-.09-.24-.14-.36a7,7,0,0,1-.28-1.52c0-.32,0-.64,0-1l.05.11a11.39,11.39,0,0,1,.09-1.95c0-.2.05-.39.09-.58s.06-.39.11-.59l0-.07A10.62,10.62,0,0,1,298,7.57l.27-.83,0,.87c0,.37,0,.74,0,1.09v.21c0,.06,0,.11,0,.16v.86c0,.46,0,.92,0,1.39a8.94,8.94,0,0,1,.89-1.08,16.53,16.53,0,0,0,1.08-1.3A4.79,4.79,0,0,0,300,2.84Z"/><path class="cls-1" d="M291.94,13.65a.12.12,0,0,1-.09,0c-.44-.57-.86-.44-1.57-.16A3,3,0,0,1,286.74,12a12.5,12.5,0,0,1-1.56-5.25l0-.16.62.11a10.82,10.82,0,0,1,5.08,1.77h0c1.38,1.07,1.62,2.48.72,4.19l.74.82-.14.07-.1,0A.27.27,0,0,1,291.94,13.65Zm-6.5-6.77a12,12,0,0,0,1.51,5,2.74,2.74,0,0,0,3.24,1.35,1.62,1.62,0,0,1,1.46-.12l-.36-.4,0-.07c.9-1.66.69-3-.62-4a10.72,10.72,0,0,0-5-1.73Z"/><path class="cls-1" d="M286.83,8.58l.6.68c.2.23.4.45.61.67.42.43.84.86,1.28,1.26s.9.8,1.37,1.18l.35.27.37.27c.23.18.5.33.74.51a9.38,9.38,0,0,1-1.57-.9,12.09,12.09,0,0,1-1.42-1.15,14.32,14.32,0,0,1-1.26-1.32A12,12,0,0,1,286.83,8.58Z"/><path class="cls-1" d="M339.26,5.62c0-1.26,0-2.52,0-3.67-1.18.22-2.44.45-3.68.7a4.76,4.76,0,0,0-4,4.86c0,.61,0,1.23.05,1.84,0,.2,0,.41,0,.6a7.92,7.92,0,0,0-1.05,1.19,4.92,4.92,0,0,0-.73,1.49l0,.2a.76.76,0,0,0,0,.21c0,.07,0,.14,0,.21v.21a1.55,1.55,0,0,0,0,.21,1.6,1.6,0,0,0,.05.21c0,.06.06.12.09.19a1.83,1.83,0,0,0,.13.16,1.26,1.26,0,0,1-.1-.38,1.2,1.2,0,0,1,0-.19,1.15,1.15,0,0,1,0-.19l0-.19a1.33,1.33,0,0,1,.05-.19,2.53,2.53,0,0,1,.12-.36,6.09,6.09,0,0,1,.76-1.33c.18-.26.38-.51.57-.76l0,.12a12.13,12.13,0,0,1,1.31-1.44l.44-.39.46-.37.06,0c.29-.22.59-.43.91-.63l.73-.46-.52.69c-.22.3-.46.57-.69.84l-.05.06-.09.1-.1.11-.18.23-.37.43c-.29.35-.58.7-.87,1.08a8.86,8.86,0,0,1,1.38-.26c.55-.08,1.11-.17,1.65-.3A4.75,4.75,0,0,0,339.26,5.62Z"/><path class="cls-1" d="M325.07,13.65a.1.1,0,0,1-.09,0c-.44-.57-.87-.44-1.57-.16A3,3,0,0,1,319.87,12a12.37,12.37,0,0,1-1.57-5.25l0-.16.62.11A10.82,10.82,0,0,1,324,8.47h0c1.38,1.07,1.63,2.48.73,4.19l.73.82-.14.07-.1,0A.24.24,0,0,1,325.07,13.65Zm-6.51-6.77a12,12,0,0,0,1.51,5,2.76,2.76,0,0,0,3.25,1.35,1.6,1.6,0,0,1,1.45-.12l-.36-.4,0-.07c.9-1.66.7-3-.62-4a10.72,10.72,0,0,0-5-1.73Z"/><path class="cls-1" d="M320,8.58c.2.23.39.46.59.68s.41.45.61.67c.42.43.84.86,1.29,1.26s.89.8,1.36,1.18l.35.27.37.27c.24.18.5.33.75.51a9.47,9.47,0,0,1-1.58-.9,13,13,0,0,1-1.42-1.15A13,13,0,0,1,321,10.05,11,11,0,0,1,320,8.58Z"/><path class="cls-1" d="M341.11,13.31a2.3,2.3,0,0,1-1.36-.52l-.59.39-.07-.22a.14.14,0,0,1,0-.19c.36-.2.32-.44.22-.89a1.91,1.91,0,0,1,1.25-2.09A7.76,7.76,0,0,1,344,9.33h.16l-.14.43a6.85,6.85,0,0,1-1.58,3h0A1.89,1.89,0,0,1,341.11,13.31Zm-1.35-.81.07.05a1.68,1.68,0,0,0,2.43,0h0a6.67,6.67,0,0,0,1.51-2.87l0-.12a7.2,7.2,0,0,0-3.12.46,1.65,1.65,0,0,0-1.1,1.8,1.36,1.36,0,0,1,0,.77Z"/><line class="cls-2" y1="16.89" x2="0.5" y2="16.89"/><line class="cls-3" x1="2.49" y1="16.89" x2="348.5" y2="16.89"/><line class="cls-2" x1="349.5" y1="16.89" x2="350" y2="16.89"/></g></g></svg>