<svg xmlns="http://www.w3.org/2000/svg" viewBox="0 0 102.07 17.39"><defs><style>.cls-1{fill:#fff;}</style></defs><title>leaf-bar-w</title><g id="Layer_2" data-name="Layer 2"><g id="Layer_1-2" data-name="Layer 1"><path class="cls-1" d="M45.77,11.69l.63.27a4.24,4.24,0,0,0,5.52-1.28c.83-1,1.65-2.1,2.52-3.22a6.68,6.68,0,0,0-5.95-2.13c-2.56.64-3.43,2.71-4,5l-.2-.07a2,2,0,0,1,0-.48c.78-4.56,5-6.38,8.9-3.84.66.43,1.27,1,1.89,1.44a3.47,3.47,0,0,1,.39.45c-1.47.41-2.17,1.52-2.92,2.65A4.64,4.64,0,0,1,46,12.17a2.67,2.67,0,0,1-.32-.24Z"/><path class="cls-1" d="M50.3,8.15c-3.63.72-5.77,3.18-7.39,6.26C42.93,11.81,47.55,7.86,50.3,8.15Z"/><path class="cls-1" d="M22,14.49a2.45,2.45,0,0,1-.9-.18,7.82,7.82,0,0,1-2.69-2.11l-.11-.13.41-.19A6.83,6.83,0,0,1,22,11h0a1.88,1.88,0,0,1,1.9,1.87l.69.16-.1.2s-.07.13-.17.1c-.39-.12-.54.08-.8.47A1.72,1.72,0,0,1,22,14.49Zm-3.3-2.34a7.22,7.22,0,0,0,2.49,1.93,1.66,1.66,0,0,0,2.07-.46,1.41,1.41,0,0,1,.53-.55l-.17,0V13C23.51,11.81,23,11.24,22,11.2a6.53,6.53,0,0,0-3.11.9Z"/><path class="cls-1" d="M39.63,2.84C38.81,1.87,38,.89,37.27,0c-.76.94-1.59,1.92-2.38,2.92a4.79,4.79,0,0,0,0,6.35c.39.48.81.94,1.23,1.39a5.58,5.58,0,0,1,.39.46,7.69,7.69,0,0,0,0,1.59,4.59,4.59,0,0,0,.4,1.62l.1.19a1.74,1.74,0,0,0,.11.18l.12.17.15.16a.54.54,0,0,0,.16.14.66.66,0,0,0,.17.12,1.63,1.63,0,0,0,.19.09l.2,0a1.23,1.23,0,0,1-.31-.24l-.13-.14a1.53,1.53,0,0,1-.11-.16l-.1-.16-.09-.17c-.06-.12-.09-.24-.14-.36a7.69,7.69,0,0,1-.28-1.52q0-.48,0-1s0,.08,0,.11A12.5,12.5,0,0,1,37,9.88l.09-.58c0-.19.06-.39.11-.59l0-.07c.09-.35.18-.72.29-1.07l.27-.83,0,.87c0,.37,0,.74,0,1.09v.09s0,.08,0,.12v1c0,.46,0,.92,0,1.39a9,9,0,0,1,.9-1.08c.37-.42.75-.85,1.08-1.3A4.79,4.79,0,0,0,39.63,2.84Z"/><path class="cls-1" d="M31.53,13.65a.09.09,0,0,1-.08,0c-.44-.57-.87-.44-1.58-.16A3,3,0,0,1,26.34,12a12.37,12.37,0,0,1-1.57-5.25l0-.16.62.11a10.82,10.82,0,0,1,5.08,1.77h0c1.38,1.07,1.63,2.48.73,4.19l.73.82-.14.07-.1,0A.24.24,0,0,1,31.53,13.65ZM25,6.88a12,12,0,0,0,1.51,5,2.76,2.76,0,0,0,3.25,1.35,1.6,1.6,0,0,1,1.45-.12l-.36-.4,0-.07c.9-1.66.7-3-.62-4a10.72,10.72,0,0,0-5-1.73Z"/><path class="cls-1" d="M26.43,8.58c.19.23.39.46.59.68s.41.45.61.67c.42.43.84.86,1.29,1.26s.89.8,1.36,1.18l.35.27.37.27c.24.18.5.33.75.51a9.47,9.47,0,0,1-1.58-.9,13,13,0,0,1-1.42-1.15,13,13,0,0,1-1.25-1.32A11,11,0,0,1,26.43,8.58Z"/><path class="cls-1" d="M78.85,5.62c0-1.26,0-2.52,0-3.67-1.18.22-2.43.45-3.68.7a4.77,4.77,0,0,0-4,4.86c0,.61,0,1.23,0,1.84,0,.2,0,.41,0,.6a9.21,9.21,0,0,0-1,1.19,4.68,4.68,0,0,0-.72,1.49l0,.2a1.52,1.52,0,0,0,0,.21c0,.07,0,.14,0,.21v.21a1.52,1.52,0,0,0,0,.21.83.83,0,0,0,.06.21c0,.06,0,.12.08.19a1.83,1.83,0,0,0,.13.16,1,1,0,0,1-.09-.38.62.62,0,0,1,0-.19c0-.07,0-.13,0-.19l0-.19c0-.06,0-.13.05-.19a2.53,2.53,0,0,1,.12-.36,7,7,0,0,1,.76-1.33c.18-.26.38-.51.58-.76l0,.12a10.63,10.63,0,0,1,1.31-1.44l.44-.39c.14-.12.29-.25.46-.37l.06,0q.44-.33.9-.63L75,7.43l-.52.69c-.22.3-.46.57-.69.84l0,.06-.08.1-.11.11-.18.23c-.12.14-.24.29-.37.43-.29.35-.58.7-.86,1.08a8.52,8.52,0,0,1,1.37-.26c.55-.08,1.11-.17,1.65-.3A4.74,4.74,0,0,0,78.85,5.62Z"/><path class="cls-1" d="M64.66,13.65a.12.12,0,0,1-.09,0c-.44-.57-.86-.44-1.57-.16A3,3,0,0,1,59.46,12,12.36,12.36,0,0,1,57.9,6.75l0-.16.63.11a10.78,10.78,0,0,1,5.07,1.77h0C65,9.54,65.2,11,64.3,12.66l.73.82-.14.07-.1,0A.24.24,0,0,1,64.66,13.65Zm-6.5-6.77a11.81,11.81,0,0,0,1.51,5,2.74,2.74,0,0,0,3.24,1.35,1.6,1.6,0,0,1,1.45-.12L64,12.7l0-.07c.89-1.66.69-3-.62-4a10.76,10.76,0,0,0-5-1.73Z"/><path class="cls-1" d="M59.55,8.58c.2.23.39.46.6.68s.4.45.61.67c.41.43.84.86,1.28,1.26s.89.8,1.36,1.18l.36.27.36.27c.24.18.5.33.75.51a9.89,9.89,0,0,1-1.58-.9,13,13,0,0,1-1.42-1.15,14.22,14.22,0,0,1-1.25-1.32A11,11,0,0,1,59.55,8.58Z"/><path class="cls-1" d="M80.71,13.31a2.33,2.33,0,0,1-1.37-.52l-.58.39L78.68,13a.14.14,0,0,1,0-.19c.36-.2.33-.44.22-.89a1.91,1.91,0,0,1,1.25-2.09,7.76,7.76,0,0,1,3.38-.46h.17l-.15.43a6.84,6.84,0,0,1-1.57,3h0A1.91,1.91,0,0,1,80.71,13.31Zm-1.36-.81.07.05a1.68,1.68,0,0,0,2.43,0h0a6.67,6.67,0,0,0,1.51-2.87l0-.12a7.16,7.16,0,0,0-3.11.46,1.65,1.65,0,0,0-1.11,1.8,1.36,1.36,0,0,1,0,.77Z"/><rect class="cls-1" y="16.39" width="0.5" height="1"/><path class="cls-1" d="M99.57,17.39h-1v-1h1Zm-3,0h-1v-1h1Zm-3,0h-1v-1h1Zm-3,0h-1v-1h1Zm-3,0h-1v-1h1Zm-3,0h-1v-1h1Zm-3,0h-1v-1h1Zm-3,0h-1v-1h1Zm-3,0h-1v-1h1Zm-3,0h-1v-1h1Zm-3,0h-1v-1h1Zm-3,0h-1v-1h1Zm-3,0h-1v-1h1Zm-3,0h-1v-1h1Zm-3,0h-1v-1h1Zm-3,0h-1v-1h1Zm-3,0h-1v-1h1Zm-3,0h-1v-1h1Zm-3,0h-1v-1h1Zm-3,0h-1v-1h1Zm-3,0h-1v-1h1Zm-3,0h-1v-1h1Zm-3,0h-1v-1h1Zm-3,0h-1v-1h1Zm-3,0h-1v-1h1Zm-3,0h-1v-1h1Zm-3,0h-1v-1h1Zm-3,0h-1v-1h1Zm-3,0h-1v-1h1Zm-3,0h-1v-1h1Zm-3,0h-1v-1h1Zm-3,0h-1v-1h1Zm-3,0h-1v-1h1Z"/><rect class="cls-1" x="101.57" y="16.39" width="0.5" height="1"/></g></g></svg>