<svg xmlns="http://www.w3.org/2000/svg" viewBox="0 0 387 352.1"><defs><style>.cls-1{fill:#8cc63f;}</style></defs><title>leaf_fall-mobile</title><g id="Layer_2" data-name="Layer 2"><g id="Layer_1-2" data-name="Layer 1"><path class="cls-1" d="M16.77,114.47a6.8,6.8,0,0,0,1.82-.14.2.2,0,0,0,.26.16,1.86,1.86,0,0,0,.54-.37c2.79-.91,5-3.32,7.79-4.36l.35,0c1.65.22,4.1.94,5.73.42a.12.12,0,0,0,.09-.09l0-.22a.11.11,0,0,0-.2-.06c-.22.47-3.37-.07-5.53-.47a.36.36,0,0,0-.07-.17,44.34,44.34,0,0,0-5-5l-.18-.28a.1.1,0,0,0-.16,0l-.68-.47a9.66,9.66,0,0,0-6.08-1.18,16.22,16.22,0,0,0-10.66,5.17H4.74a.13.13,0,0,0,0,.26.17.17,0,0,0,.23.07.19.19,0,0,0,.09.13C8.47,110.47,12.3,114.19,16.77,114.47Zm1.3-.53H17.9A36.7,36.7,0,0,0,22,109l.8.12c-.62.84-1.24,1.69-1.9,2.5a20.44,20.44,0,0,1-1.6,2.08A6.75,6.75,0,0,1,18.07,113.94Zm7.1-3.82c-.68.39-1.32.85-2,1.3a19.29,19.29,0,0,1-3.18,2c.32-.43.6-.89.85-1.21.75-1,1.49-2,2.17-3h0l3.27.5C25.9,109.82,25.34,110,25.17,110.12Zm1.64-.9-1.09-.2-1.09-.17a.11.11,0,0,0,0-.08,16.84,16.84,0,0,0-1.2-3.19C24.62,106.6,26.76,108.52,26.81,109.22ZM22.72,105l.06.06a25.7,25.7,0,0,1,1.44,3.75l-2.88-.44,0-.06,0-.08a.2.2,0,0,0-.37-.13c.16-.36-.42-1.2-.57-1.52-.23-.49-.46-1-.7-1.48-.32-.69-.64-1.39-1-2.07A8.56,8.56,0,0,1,22.72,105Zm-7.15-2.13a11.42,11.42,0,0,1,2.88.1c.38,1,.81,1.87,1.22,2.81a13.39,13.39,0,0,0,1.13,2.5l-2.3-.33-1.28-.16c-.86-1.64-1.48-3.46-2.86-4.76C14.76,102.93,15.16,102.88,15.57,102.84Zm-1.35.18v0A25.15,25.15,0,0,1,16,106a13.83,13.83,0,0,0,.72,1.69c-.66-.08-1.31-.15-2-.21v-.06a12,12,0,0,0-2.11-4A16.41,16.41,0,0,1,14.22,103Zm-5.61,2.09a17.09,17.09,0,0,1,3.72-1.63c.43.7.85,1.4,1.21,2.14s.53,1.23.84,1.82c-1.47-.13-3-.21-4.43-.23a.17.17,0,0,0,0-.12A18.41,18.41,0,0,0,8.61,105.11Zm-.24.15a19.13,19.13,0,0,0,1.19,1.95h-.9s0,0,0,0a3.35,3.35,0,0,0-.45-.72c-.18-.25-.36-.52-.55-.77C7.89,105.55,8.13,105.41,8.37,105.26Zm-1,.63c.27.35.71,1,.93,1.34-1,0-1.93.08-2.89.18A19,19,0,0,1,7.39,105.89Zm-1.82,1.8c.69,0,1.38,0,2.06,0L7.2,108a4.79,4.79,0,0,0-.49.52C6.32,108.26,6,108,5.57,107.69Zm1.37,1a4.08,4.08,0,0,0,.47-.46c.18-.19.36-.38.53-.58a.08.08,0,0,0,0,0c1.21,0,2.41,0,3.61.11a24.44,24.44,0,0,0-2.68,2.39.1.1,0,0,0,0,.08Zm2.16,1.68h0a27.06,27.06,0,0,0,2.77-2.59s0,0,0,0c.43,0,.85.06,1.28.1-1,1.11-2.08,2.15-3.17,3.21Zm1.27.91a20.26,20.26,0,0,0,3.11-3.43c1.48.12,3,.29,4.46.48-1.44,1.6-2.89,3.16-4.36,4.72,0,0,0,0,0,.05A18.74,18.74,0,0,1,10.37,111.33Zm3.59,2a39.78,39.78,0,0,0,4.27-4.89c.69.09,1.38.18,2.07.29l1.37.21c-1.43,1.64-2.94,3.26-4.28,5a.36.36,0,0,0,0,.09A9,9,0,0,1,14,113.31Z"/><path class="cls-1" d="M147.6,98.1a1.91,1.91,0,1,1,1.9-1.9A1.91,1.91,0,0,1,147.6,98.1Zm0-3.18a1.28,1.28,0,1,0,1.27,1.28A1.28,1.28,0,0,0,147.6,94.92Z"/><path class="cls-1" d="M150.2,3.81a1.91,1.91,0,1,1,1.9-1.91A1.92,1.92,0,0,1,150.2,3.81Zm0-3.19a1.28,1.28,0,1,0,1.28,1.28A1.28,1.28,0,0,0,150.2.62Z"/><path class="cls-1" d="M159.46,11.34a2.48,2.48,0,1,1,2.47-2.47A2.48,2.48,0,0,1,159.46,11.34Zm0-4.14a1.67,1.67,0,1,0,1.66,1.67A1.66,1.66,0,0,0,159.46,7.2Z"/><path class="cls-1" d="M1.9,14.49a1.91,1.91,0,1,1,1.91-1.9A1.91,1.91,0,0,1,1.9,14.49Zm0-3.18a1.28,1.28,0,1,0,1.28,1.28A1.28,1.28,0,0,0,1.9,11.31Z"/><path class="cls-1" d="M359.1,106.73a31.82,31.82,0,0,1,3.46-2.15l.1.07A33.8,33.8,0,0,0,373,107.52a.45.45,0,0,0,.39-.71c-.82-1.35,1.27-.63,2.5-.78a16.35,16.35,0,0,0,5-1.54.44.44,0,0,0,.09-.76c-.33-.2-.57-.33-.75-.42a1.1,1.1,0,0,0,.6-.1,31.08,31.08,0,0,0,5.73-3.28.16.16,0,0,0,.06-.08.29.29,0,0,0,.29-.45,8.47,8.47,0,0,0-4.72-3.3c-1.62-.52-4.37.19-3.42-1.91a.42.42,0,0,0-.34-.58,7.79,7.79,0,0,0-4.84.34c-1.23.47-3.86,3.08-2.56.67.13-.25-.1-.51-.33-.56-4.26-.86-7.37,5.88-8,9.18a.35.35,0,0,0,.09.3,29.07,29.07,0,0,0-4.07,2.71A.31.31,0,0,0,359.1,106.73Zm6.69-8.58c.62-.85,4.51-4.85,3.59-1.51a.41.41,0,0,0,.63.47,15.27,15.27,0,0,1,3.41-2.17c.58-.23,5.45-1.77,3.64.52a.43.43,0,0,0,.29.68c3.07.4,5.74,1,8.13,2.74a56.73,56.73,0,0,0-12.41,1c.81-1,1.64-1.87,2.47-2.81.2-.22-.15-.55-.37-.36A28.19,28.19,0,0,0,372,99.94a.25.25,0,0,0-.06.16,36.81,36.81,0,0,0-4.74,1.39c.52-.75,1.05-1.49,1.55-2.26a.2.2,0,0,0-.32-.24c-.81,1-1.57,2-2.37,2.93,0,0,0,0,0,0-.85.35-1.69.74-2.51,1.17A14.93,14.93,0,0,1,365.79,98.15Zm1.18,4.48a10.57,10.57,0,0,1,2.5,1.08c.38.22.79-.29.42-.56a7.13,7.13,0,0,0-1.78-.91,42.12,42.12,0,0,1,5.45-1.35,8.44,8.44,0,0,1,2.84,1.85c.29.27.78-.22.5-.52a7.86,7.86,0,0,0-2-1.55,89,89,0,0,1,10.94-.91,20.74,20.74,0,0,1-7.26,3.22c-.44.1-.49.81,0,.85,1.5.77.81,1.19-2.06,1.23a13.91,13.91,0,0,1-4.32.07.45.45,0,0,0-.4.71c1,1.65-2.09.24-3.1,0a41.36,41.36,0,0,1-5.18-1.72A31,31,0,0,1,367,102.63Z"/><path class="cls-1" d="M223.17,30.3a4.32,4.32,0,0,0-3.2-1.07c.75-.47,1.35-1.2.36-1.79-1.26-.75-3.31-.4-4.8.14a.6.6,0,0,0,.07-.27.65.65,0,0,0-.55-.71,6.25,6.25,0,0,0-2.27.21,10.06,10.06,0,0,0-2.38.84c-.82-.46-1.63-1-2.43-1.51-.17-.11-.33.15-.17.27a30.68,30.68,0,0,0,2.78,1.87h0c-.18,1.32-.48,3.05.72,4a1.65,1.65,0,0,0,1.86.15,3.47,3.47,0,0,0,2.68,2.81,1.65,1.65,0,0,0,1.74-.51,1.26,1.26,0,0,0,.21-.51c1.55,1.29,5.15,1,6-.68A2.76,2.76,0,0,0,223.17,30.3Zm-5.58,2.9c-.14-.17-.48,0-.4.22a1.71,1.71,0,0,0,.21.4c.13.62-.59,1-1.2,1a2.64,2.64,0,0,1-1.42-.64,3.1,3.1,0,0,1-1.11-2.34c0-.22-.35-.2-.42,0l0,.14a1.36,1.36,0,0,1-2.08-.78,5,5,0,0,1-.06-2.57,27,27,0,0,0,11.2,3.57c.25,0,.33-.41.08-.45a36.52,36.52,0,0,1-11.66-3.88,12.54,12.54,0,0,1,2.17-.63,9.5,9.5,0,0,1,1.29-.17l.6,0c.2.5.1.8-.3.89-.2.09-.08.43.13.36a2.5,2.5,0,0,0,.53-.23,10.32,10.32,0,0,1,3-.49,4.19,4.19,0,0,1,1.7.18c1.27.78-.49,1.42-1,1.58-.25.08-.17.48.1.41l.27-.08c1.87,0,5.24.88,4.24,3.47C222.63,35.18,218.69,34.62,217.59,33.2Z"/><path class="cls-1" d="M376,9.25a1.91,1.91,0,1,1,1.9-1.9A1.91,1.91,0,0,1,376,9.25Zm0-3.18a1.28,1.28,0,1,0,1.28,1.28A1.28,1.28,0,0,0,376,6.07Z"/><path class="cls-1" d="M12.6,352.1a1.91,1.91,0,1,1,1.9-1.9A1.91,1.91,0,0,1,12.6,352.1Zm0-3.18a1.28,1.28,0,1,0,1.27,1.28A1.28,1.28,0,0,0,12.6,348.92Z"/><path class="cls-1" d="M121.79,257.61a22.23,22.23,0,0,1,2.47-.81l0,.06a21.67,21.67,0,0,0,6,3.35.29.29,0,0,0,.35-.38c-.3-1,.88-.2,1.67-.11a10.55,10.55,0,0,0,3.36-.18.29.29,0,0,0,.17-.46l-.4-.38a.67.67,0,0,0,.38,0,19.29,19.29,0,0,0,4.05-1.16.1.1,0,0,0,0,0c.12.08.31-.08.25-.24a5.45,5.45,0,0,0-2.43-2.76c-.92-.56-2.73-.54-1.82-1.7a.28.28,0,0,0-.13-.41,5,5,0,0,0-3.05-.53c-.83.11-2.86,1.33-1.69,0a.26.26,0,0,0-.12-.39c-2.5-1.18-5.45,2.52-6.37,4.47a.21.21,0,0,0,0,.19,18.11,18.11,0,0,0-2.93,1.07A.19.19,0,0,0,121.79,257.61Zm5.45-4.3c.51-.43,3.53-2.32,2.45-.39a.26.26,0,0,0,.32.38,9.74,9.74,0,0,1,2.44-.82c.39,0,3.65-.27,2.18.87a.27.27,0,0,0,.07.47,10.31,10.31,0,0,1,4.62,2.93,35.85,35.85,0,0,0-7.83-1.27c.64-.47,1.3-.91,1.95-1.37.16-.1,0-.36-.17-.28a17.49,17.49,0,0,0-2.43,1.54.27.27,0,0,0-.07.08,25.3,25.3,0,0,0-3.14.15c.44-.38.88-.77,1.3-1.17a.12.12,0,0,0-.16-.19c-.65.47-1.27,1-1.91,1.45h0c-.58.09-1.16.21-1.74.35A9.42,9.42,0,0,1,127.24,253.31Zm.05,2.95a7,7,0,0,1,1.38,1.05c.2.19.54-.06.35-.28a4.79,4.79,0,0,0-1-.84,28.35,28.35,0,0,1,3.57,0,5.45,5.45,0,0,1,1.49,1.57c.13.22.51,0,.38-.24a5.13,5.13,0,0,0-1-1.28,58,58,0,0,1,6.91,1.1,13,13,0,0,1-5,.89c-.29,0-.43.43-.12.53q1.22,1.07-1.47.45a8.5,8.5,0,0,1-2.68-.61.28.28,0,0,0-.35.38c.37,1.18-1.34-.17-1.92-.48a27.07,27.07,0,0,1-3-1.85A21.85,21.85,0,0,1,127.29,256.26Z"/><path class="cls-1" d="M162.51,334.14a1.91,1.91,0,1,1,1.91-1.9A1.9,1.9,0,0,1,162.51,334.14Zm0-3.19a1.29,1.29,0,1,0,1.29,1.29A1.29,1.29,0,0,0,162.51,331Z"/><path class="cls-1" d="M41.08,225.19a2.55,2.55,0,1,1,2.55-2.55A2.55,2.55,0,0,1,41.08,225.19Zm0-4.27a1.72,1.72,0,1,0,1.71,1.72A1.72,1.72,0,0,0,41.08,220.92Z"/><path class="cls-1" d="M374.15,325.09a6.35,6.35,0,0,0-4.9.56c.71-1.1,1.05-2.43-.62-2.6-2.12-.22-4.62,1.51-6.25,3.14a1.19,1.19,0,0,0-.08-.4.93.93,0,0,0-1.16-.6,8.65,8.65,0,0,0-2.87,1.67,14.34,14.34,0,0,0-2.65,2.57c-1.36-.1-2.73-.27-4.12-.5a.23.23,0,0,0-.07.46,45.79,45.79,0,0,0,4.83.76h0c.57,1.86,1.24,4.33,3.42,4.87a2.42,2.42,0,0,0,2.55-.95c.88,1.74,3.5,2.47,5.26,2.07a2.42,2.42,0,0,0,2-1.74,1.84,1.84,0,0,0,0-.81c2.83.76,7.39-1.89,7.53-4.59A4,4,0,0,0,374.15,325.09Zm-5.6,7.27c-.29-.15-.64.28-.4.53a2.49,2.49,0,0,0,.52.4c.56.75-.17,1.68-1,2a3.82,3.82,0,0,1-2.27,0,4.53,4.53,0,0,1-2.9-2.42c-.17-.28-.6-.05-.56.24a.78.78,0,0,0,0,.21,2,2,0,0,1-3.24.24,7.38,7.38,0,0,1-1.65-3.36,39.33,39.33,0,0,0,17-2.16c.35-.13.2-.74-.17-.64a53.33,53.33,0,0,1-17.8,2,18.9,18.9,0,0,1,2.48-2.17,14,14,0,0,1,1.61-1c.25-.14.51-.27.78-.4.57.55.62,1,.14,1.37-.2.24.17.61.4.39a4.2,4.2,0,0,0,.56-.63,15,15,0,0,1,3.63-2.47,5.94,5.94,0,0,1,2.35-.81c2.16.26.23,2.17-.29,2.67-.28.28.06.75.38.5a4,4,0,0,0,.31-.29c2.45-1.19,7.47-2,7.74,2C376.43,331.87,370.87,333.56,368.55,332.36Z"/><path class="cls-1" d="M342.32,255.67a1.91,1.91,0,1,1,1.91-1.9A1.9,1.9,0,0,1,342.32,255.67Zm0-3.18a1.28,1.28,0,1,0,1.29,1.28A1.28,1.28,0,0,0,342.32,252.49Z"/><path class="cls-1" d="M364.24,213.32a1.91,1.91,0,1,1,1.91-1.9A1.91,1.91,0,0,1,364.24,213.32Zm0-3.19a1.29,1.29,0,1,0,1.28,1.29A1.28,1.28,0,0,0,364.24,210.13Z"/><path class="cls-1" d="M224.05,230.53a5.54,5.54,0,0,0-1.29.71.16.16,0,0,0-.24,0,1.33,1.33,0,0,0-.28.45c-1.74,1.6-2.55,4.1-4.27,5.8l-.27.08c-1.29.39-3.33.68-4.36,1.61a.09.09,0,0,0,0,.1l0,.17a.08.08,0,0,0,.16,0c0-.42,2.51-1.08,4.23-1.5a.24.24,0,0,0,.11.09,34.16,34.16,0,0,0,5.32,2l.23.15a.08.08,0,0,0,.11-.07l.66.12a7.86,7.86,0,0,0,4.87-1.16,13.19,13.19,0,0,0,6.11-7.36l.09-.06a.1.1,0,0,0-.09-.18.12.12,0,0,0-.19,0,.15.15,0,0,0-.11-.07C231.49,230.7,227.44,229.24,224.05,230.53Zm-.78.83.13-.07a29.8,29.8,0,0,0-1.33,5l-.63.17c.17-.82.35-1.65.56-2.47a17.94,17.94,0,0,1,.49-2.07A5,5,0,0,1,223.27,231.36Zm-3.94,5.18c.37-.52.69-1.07,1-1.61a15.06,15.06,0,0,1,1.68-2.51c-.09.42-.15.86-.22,1.17-.23,1-.43,2-.58,3h0l-2.57.73C218.89,237,219.24,236.67,219.33,236.54Zm-.91,1.2.87-.21.86-.24a.09.09,0,0,0,0,.06,13.31,13.31,0,0,0,1.95,2C220.91,238.94,218.69,238.25,218.42,237.74Zm4.43,1.76h-.06a20,20,0,0,1-2.31-2.29l2.26-.63v.12a.16.16,0,0,0,.32,0c0,.32.71.74.92.92l1,.86c.47.4.94.81,1.42,1.19A6.91,6.91,0,0,1,222.85,239.5Zm6-.82a9.2,9.2,0,0,1-2.15.9c-.6-.58-1.22-1.12-1.83-1.66a11.64,11.64,0,0,0-1.67-1.47l1.8-.52,1-.31a13.48,13.48,0,0,0,3.7,2.54A9,9,0,0,1,228.82,238.68Zm.93-.58v0a18.85,18.85,0,0,1-2.27-1.59c-.36-.31-.69-.72-1.09-1,.51-.16,1-.32,1.52-.5,0,0,0,0,0,0a9.55,9.55,0,0,0,2.9,2.25A12,12,0,0,1,229.75,238.1Zm3.43-3.41a13.77,13.77,0,0,1-2.19,2.45c-.55-.37-1.09-.76-1.61-1.18s-.79-.73-1.22-1.06c1.13-.39,2.24-.82,3.33-1.3a.16.16,0,0,0,.06.08A14.29,14.29,0,0,0,233.18,234.69Zm.13-.19a14.12,14.12,0,0,0-1.53-1l.67-.31h0a3.53,3.53,0,0,0,.57.38c.22.12.44.26.67.38C233.57,234.13,233.44,234.31,233.31,234.5Zm.51-.79c-.31-.16-.87-.53-1.13-.67.7-.34,1.39-.71,2.07-1.1A18.67,18.67,0,0,1,233.82,233.71Zm.73-1.93c-.49.25-1,.49-1.49.72l.18-.43a3.58,3.58,0,0,0,.19-.55Zm-1.35-.32a2.34,2.34,0,0,0-.19.5c-.07.2-.14.4-.2.6v.05c-.89.4-1.78.77-2.69,1.12a20.8,20.8,0,0,0,1.18-2.65V231Zm-2.15-.51h0a22,22,0,0,0-1.17,2.84,0,0,0,0,0,0,0c-.32.13-.64.24-1,.36.38-1.17.81-2.29,1.26-3.42C230.45,230.82,230.75,230.89,231.05,231Zm-1.24-.25a16.5,16.5,0,0,0-1.14,3.57c-1.13.4-2.28.78-3.44,1.13.52-1.65,1.07-3.29,1.63-4.92a.11.11,0,0,0,0,0A15.62,15.62,0,0,1,229.81,230.7Zm-3.3-.26a31.59,31.59,0,0,0-1.5,5l-1.62.48-1.09.3c.51-1.68,1.08-3.38,1.49-5.08a.11.11,0,0,0,0-.08A7.48,7.48,0,0,1,226.51,230.44Z"/></g></g></svg>