<svg xmlns="http://www.w3.org/2000/svg" xmlns:xlink="http://www.w3.org/1999/xlink" viewBox="0 0 47.98 54.58"><defs><style>.cls-1{fill:#7f3f97;}.cls-2{fill:#f29c1e;}.cls-3{fill:url(#linear-gradient);}.cls-4{fill:url(#linear-gradient-2);}.cls-5{fill:url(#linear-gradient-3);}.cls-6{fill:#ffcf42;}.cls-7{fill:#ffdf79;}</style><linearGradient id="linear-gradient" x1="23.99" y1="29.61" x2="23.99" y2="45.38" gradientUnits="userSpaceOnUse"><stop offset="0" stop-color="#743191"/><stop offset="0.83" stop-color="#591e63"/></linearGradient><linearGradient id="linear-gradient-2" x1="28.56" y1="35.91" x2="28.56" y2="49.53" gradientUnits="userSpaceOnUse"><stop offset="0" stop-color="#ffdf78"/><stop offset="0.42" stop-color="#ffd640"/><stop offset="0.85" stop-color="#fdc140"/></linearGradient><linearGradient id="linear-gradient-3" x1="19.37" y1="35.91" x2="19.37" y2="49.53" xlink:href="#linear-gradient-2"/></defs><title>logo</title><g id="Layer_2" data-name="Layer 2"><g id="Layer_1-2" data-name="Layer 1"><path class="cls-1" d="M10.79,45.38a1,1,0,0,0-.25,0,1.86,1.86,0,0,1-.33,0l-.82,0H8.82a1.18,1.18,0,0,1-.46,0,1,1,0,0,1-.48-.5.45.45,0,0,1,0-.42c.13-.27.44-.34.69-.46s.63-.24,1-.34l.34-.1a7.63,7.63,0,0,1,.83-.17l.5-.08.38-.06.4-.1a1.11,1.11,0,0,0,.19-.09s0,0,0,0a1.21,1.21,0,0,0-.49-.34l-.13-.05a1.38,1.38,0,0,0-.39-.09l-.16,0a4.26,4.26,0,0,0-.5-.06,2.72,2.72,0,0,0-.57,0s0,0,0,0a3.45,3.45,0,0,0-.72.08c-.16,0-.32,0-.48,0l-.54,0a.67.67,0,0,1-.34-.1c-.12-.06,0-.2.06-.28a.73.73,0,0,1,.26-.17l.35-.14.28-.1.62-.21.59-.2.09,0a.38.38,0,0,0-.13,0l-.54-.08H9.25a2.26,2.26,0,0,0-.45,0H8.55a2.35,2.35,0,0,0-.37,0,2.08,2.08,0,0,1-.61.07,5.93,5.93,0,0,0-.72.1l-.17,0c-.06,0-.09,0-.13-.06a.54.54,0,0,1-.08-.19.21.21,0,0,1,.07-.2.62.62,0,0,1,.19-.14,4.41,4.41,0,0,1,.71-.29l.15,0a4,4,0,0,1,.58-.2l.72-.23.83-.28a3.76,3.76,0,0,0,.4-.13s.05,0,.08,0l0,0A.72.72,0,0,0,10,39.5l-.15-.09a2.91,2.91,0,0,0-.48-.21.45.45,0,0,0-.19-.05.12.12,0,0,1-.09-.06L9,39c0-.1.05-.09.13-.08a2.4,2.4,0,0,1,.61.18c.13.07.26.13.38.21a1.19,1.19,0,0,1,.23.16l.09.13.11.22a.81.81,0,0,1,0,.31.42.42,0,0,1-.08.21.7.7,0,0,1-.16.13l-.37.18a1.29,1.29,0,0,1-.38.12l-.07,0-.27.11H9.14s0,0-.06,0S9,40.94,9,41H9.1l.68,0a2.35,2.35,0,0,1,.57.13l.19.08s0,0,0,0a2.2,2.2,0,0,1,.17.25.23.23,0,0,1,0,.2s0,.1,0,.14a.41.41,0,0,1-.26.24l-.16.05,0,0s.05,0,.07,0h.32l.32,0,.6.11a1.45,1.45,0,0,1,.62.31.79.79,0,0,1,.19.25,1.65,1.65,0,0,1,.18.41.28.28,0,0,1-.11.29,1.44,1.44,0,0,1-.39.2c-.1,0-.18.09-.28.12a2.47,2.47,0,0,1-.46.15c-.31.08-.64.14-1,.25s-.64.11-1,.21-.5.19-.75.28c-.08,0-.16,0-.22.08s-.08.06-.07.13,0,.14.12.16l.07,0a4.34,4.34,0,0,1,.51,0l.53,0h.6l.59,0h.12c.07,0,.08,0,.11.11A.23.23,0,0,1,10.79,45.38Z"/><path class="cls-1" d="M12,46.78l-.07,0a2.62,2.62,0,0,0-.38.09.7.7,0,0,1-.25,0c-.16,0-.51-.19-.53-.36s0-.22,0-.32a.58.58,0,0,1,.09-.28,1.6,1.6,0,0,1,.39-.43c.16-.13.32-.25.5-.37l.18-.09.29-.17.17-.1s0,0,.06,0l.06.14a.19.19,0,0,1,0,.15l-.08.16a.57.57,0,0,1-.12.15l-.11.11c-.15.14-.33.24-.48.39s-.46.39-.45.41,0,0,0,0l0,.07,0,0a.24.24,0,0,0-.06.08c0,.06,0,.1,0,.13l.15,0a4.7,4.7,0,0,0,1.11-.11,1,1,0,0,0,.27-.11,1.67,1.67,0,0,1,.28-.18l.31-.19a0,0,0,0,1,.06,0,.25.25,0,0,1,.08.19s0,0,0,.08l-.08.11a2.55,2.55,0,0,1-.38.43c-.15.17-.34.31-.5.48a3.31,3.31,0,0,1-.34.3s0,0,0,0l.06,0,.25.07.3.06.3.06.17,0c.06,0,.12,0,.19,0l.19,0h.15a0,0,0,0,1,0,.05,0,0,0,0,1-.05,0l-.12,0h-.19a2.67,2.67,0,0,1-.4,0c-.09,0-.17-.05-.26-.06s-.19,0-.29,0a2.16,2.16,0,0,1-.41-.13l-.12,0s0,0,0,0l0,0-.18.16,0,0c-.2.12-.38.29-.58.41l-.33.16c-.09,0-.21,0-.29.07a1.66,1.66,0,0,1-.32,0,1.29,1.29,0,0,1-.19,0,.8.8,0,0,1-.55-.19h0a.86.86,0,0,1-.16-.1,1.83,1.83,0,0,1-.32-.3,1.17,1.17,0,0,1-.17-.28,1.41,1.41,0,0,1-.06-.22,1.08,1.08,0,0,1,.06-.4.71.71,0,0,1,.12-.18L8.81,47a.65.65,0,0,1,.27-.08h.05a.33.33,0,0,1,.17,0h.09a.59.59,0,0,1,.23,0l.22.06A.37.37,0,0,1,10,47a.81.81,0,0,0,.25.08l.36.1.49.14.17.06a.08.08,0,0,0,.07,0l.3-.25.38-.32.07-.07,0,0h0Zm-.9.75-.15-.06-.21-.09-.3-.07-.16,0-.19-.07a.17.17,0,0,0-.1,0s-.08,0-.11,0h0l-.13,0h0s0,0-.05,0l-.06,0H9.48l-.24,0h0a.8.8,0,0,0-.28.13v0l-.09.08a.31.31,0,0,0-.12.19.59.59,0,0,0,.09.35l0,0a1.68,1.68,0,0,0,.29.24,1.17,1.17,0,0,0,.27.15.82.82,0,0,0,.38.05l.26,0s.06,0,.08,0l.15-.06a.92.92,0,0,0,.25-.15l.2-.13c.14-.12.3-.23.43-.36l0,0Zm-2.23-.29h0Zm2.52-1.19s0,0,0,0h0v0Z"/><path class="cls-1" d="M16,52.77a1.31,1.31,0,0,1,0-.28,1.72,1.72,0,0,1,.19-.67s0,0,0,0-.05,0-.08,0l-.07,0a.22.22,0,0,0-.14,0h-.05a1.14,1.14,0,0,1-.33-.05A1.35,1.35,0,0,1,14.68,50a2.19,2.19,0,0,1,.23-.49c.16-.24.34-.47.52-.69a7.53,7.53,0,0,1,1.1-1l.31-.25.08,0,.06,0a1.3,1.3,0,0,1,.26-.14,3.78,3.78,0,0,1,.56-.13.6.6,0,0,1,.23,0l.22,0a1.42,1.42,0,0,1,.5.3.87.87,0,0,1,.22.21,1.34,1.34,0,0,1,.17.31.3.3,0,0,1,0,.23c0,.08-.09.16-.13.25a.86.86,0,0,0-.07.1l-.14.17,0,0-.22,0s-.05,0,0-.07.07-.15.1-.22l.1-.22a.09.09,0,0,0,0-.1l-.3-.29h0a2.72,2.72,0,0,0-.25-.11l-.07,0a.33.33,0,0,0-.29,0l-.13,0a.74.74,0,0,0-.28.14,2.86,2.86,0,0,0-.5.48l-.39.46c-.13.15-.26.29-.38.44s-.16.22-.24.33a2.46,2.46,0,0,0-.33.53,3.24,3.24,0,0,0-.25.72.83.83,0,0,0,0,.35.28.28,0,0,0,.09.18.69.69,0,0,0,.22.16.54.54,0,0,0,.25,0,.76.76,0,0,0,.36-.11l.16-.08a.18.18,0,0,0,.1-.11l.24-.42.16-.23c.13-.16.26-.33.4-.49l.19-.19.09-.08s0,0-.06,0a.52.52,0,0,1-.25-.11s0,0-.06,0a1.54,1.54,0,0,1-.34-.12.24.24,0,0,1-.1-.24l.1,0,.27.09.12.05.05,0,.28.11.07,0a.44.44,0,0,1,.24.13.19.19,0,0,1,.08.16.34.34,0,0,1,0,.1s0,0,0,.06a.94.94,0,0,1-.11.37s0,0,0,.05-.24.35-.36.54a7.21,7.21,0,0,1-.51.72,2.53,2.53,0,0,1-.22.26,1.49,1.49,0,0,0-.27.33c0,.07-.09.29-.19.31l-.08,0,0,0c-.06.09-.07.1-.16.07l0,0h0v0A.15.15,0,0,1,16,52.77Z"/><path class="cls-1" d="M19.87,51.41s0,.06-.06.08l-.13.15-.05,0s-.06,0-.08.08l-.05,0-.08.09-.05.05a1.41,1.41,0,0,0-.18.23h0l-.13.1a.64.64,0,0,1-.25.11.47.47,0,0,1-.16,0h0l-.15,0s-.08,0-.09,0a1.11,1.11,0,0,1-.16-.11.39.39,0,0,1-.12-.24,1.24,1.24,0,0,1,0-.27,2.58,2.58,0,0,1,.08-.26,2,2,0,0,1,.1-.29,3.12,3.12,0,0,1,.18-.48l.11-.23a1.63,1.63,0,0,1,.11-.23l.14-.19s0,0,.05,0,.1,0,.12.07a.12.12,0,0,1,.05.07s0,.06,0,.1,0,.05,0,.06a1,1,0,0,0,0,.17,2.65,2.65,0,0,1-.11.3.28.28,0,0,1,0,.12s0,0,0,.07a.31.31,0,0,1-.06.16c0,.07-.05.13-.09.21l0,.08h0a1.07,1.07,0,0,1-.07.19l0,0a.18.18,0,0,1,0,.11.25.25,0,0,0,0,.11.55.55,0,0,1-.05.17.33.33,0,0,0,0,.14s0,0,0,0h.06a.57.57,0,0,0,.14,0s.07,0,.09-.06a2.45,2.45,0,0,0,.37-.26l.13-.13a1.1,1.1,0,0,0,.16-.15l.18-.21s.05,0,.07-.07a.18.18,0,0,1,.16,0A.13.13,0,0,1,19.87,51.41Zm-.82-1.95s0,0,0,0l.08,0a.16.16,0,0,1,.14.11,2.12,2.12,0,0,1-.12.2l-.07,0h0a.17.17,0,0,1-.12-.07.19.19,0,0,1,0-.1.12.12,0,0,1,0-.13.38.38,0,0,1,0-.1Z"/><path class="cls-1" d="M20.2,50.17l.17,0a.09.09,0,0,1,.05.08.13.13,0,0,0,0,.1.06.06,0,0,1,0,.06,1.09,1.09,0,0,0,.05.17.3.3,0,0,1,0,.1,1,1,0,0,0,0,.16,1.45,1.45,0,0,1,0,.36c0,.24,0,.49,0,.73s0,.25,0,.38a2.2,2.2,0,0,0,0,.44.66.66,0,0,1,0,.14.29.29,0,0,0,0,.1s0,.05,0,.08a.12.12,0,0,0,0,.11s0,0,0,.06h0l.06-.06.14-.2.22-.3,0-.06a1.19,1.19,0,0,1,.08-.16,2.49,2.49,0,0,1,.15-.28.61.61,0,0,1,.07-.14.11.11,0,0,0,0-.08.83.83,0,0,1-.08-.22.65.65,0,0,1,0-.19,2.87,2.87,0,0,1,0-.41.68.68,0,0,1,.07-.2.58.58,0,0,1,.13-.23,1.31,1.31,0,0,1,.11-.12.11.11,0,0,1,.11,0h.08a1.06,1.06,0,0,1,.19,0,.09.09,0,0,1,.06.07.62.62,0,0,1,0,.36,1.24,1.24,0,0,1-.1.2l-.08.2a1.53,1.53,0,0,0-.14.21.27.27,0,0,1-.1.16.22.22,0,0,0,.05.14s0,0,0,.06a.43.43,0,0,0,.18.24.08.08,0,0,0,.09,0,.71.71,0,0,0,.32-.14.4.4,0,0,0,.16-.13l0,0a.86.86,0,0,0,.14-.13.11.11,0,0,1,.16,0h0a.06.06,0,0,0,0,0,.09.09,0,0,1,0,.07l0,.05s-.07.1-.13.13-.13.1-.21.15h0a.19.19,0,0,0-.1,0,1.21,1.21,0,0,1-.43.07l-.15-.05-.21-.12,0,0a.08.08,0,0,0-.05.09v0c-.06.06-.06.14-.1.2s-.25.35-.38.52a.33.33,0,0,1-.06.1.24.24,0,0,1-.08.06c-.05,0-.09.06-.14.06a0,0,0,0,0,0,0l-.16.07a.34.34,0,0,1-.38-.1A.69.69,0,0,1,20,53a.78.78,0,0,1,0-.22v0c0-.12,0-.25,0-.37v0s0-.06,0-.08,0-.27,0-.41a.66.66,0,0,1,0-.14,1.34,1.34,0,0,1,0-.2c0-.16,0-.32.05-.47s0-.12,0-.18l0-.24a1.63,1.63,0,0,0,0-.31.4.4,0,0,1,0-.15A.06.06,0,0,1,20.2,50.17Zm1.6.64a.2.2,0,0,1,0,.08.26.26,0,0,0-.08.2.64.64,0,0,1,0,.2v.16s0,0,0,0l0,0,.05-.1,0,0a.61.61,0,0,0,0-.13c0-.06,0-.11,0-.16a.28.28,0,0,0,0-.2S21.8,50.78,21.8,50.81Z"/><path class="cls-1" d="M24.31,52a.92.92,0,0,0,0,.09c0,.06-.05.13-.09.19l0,.06s0,.06-.06.09l0,.06a.54.54,0,0,0-.05.11s0,0,0,.06a2.18,2.18,0,0,0-.11.27h0l-.1.14a.71.71,0,0,1-.21.17.39.39,0,0,1-.14.08h0l-.15,0h-.1c-.06,0-.13,0-.18-.07a.33.33,0,0,1-.18-.19.76.76,0,0,1-.06-.26,2.43,2.43,0,0,1,0-.27c0-.1,0-.21,0-.31a2.92,2.92,0,0,1,0-.51,2.34,2.34,0,0,1,0-.26,1,1,0,0,1,0-.25c0-.07,0-.14.08-.22s0,0,0,0a.32.32,0,0,1,.14,0s.05,0,.06.06a.51.51,0,0,1,0,.1.08.08,0,0,1,0,0,1,1,0,0,0,0,.17c0,.11,0,.21,0,.32a.62.62,0,0,1,0,.13.17.17,0,0,0,0,.07.33.33,0,0,1,0,.17,1.64,1.64,0,0,0,0,.23v.08h0a.71.71,0,0,1,0,.21s0,0,0,0a.22.22,0,0,1,0,.11.53.53,0,0,0,0,.12.55.55,0,0,1,0,.18.37.37,0,0,0,0,.14s0,0,0,0h.06a.35.35,0,0,0,.13-.08l.07-.08a2.33,2.33,0,0,0,.27-.35.91.91,0,0,0,.09-.17A1.08,1.08,0,0,0,24,52.3c0-.09.08-.16.12-.26s0,0,0-.08a.16.16,0,0,1,.15-.07A.13.13,0,0,1,24.31,52ZM23,50.33h.12a.16.16,0,0,1,.16.07,1.42,1.42,0,0,1,0,.22l-.06.06h0c-.05,0-.1,0-.14,0a.24.24,0,0,1-.06-.08.18.18,0,0,1,0-.13s0-.07,0-.1Z"/><path class="cls-1" d="M26.58,52.38a6.47,6.47,0,0,0,0,.88.92.92,0,0,0,0,.16.06.06,0,0,1,0,0,.11.11,0,0,0,0,.06v0l0,0c.06-.13.12-.25.17-.37s.12-.34.18-.51a1.36,1.36,0,0,1,.1-.21c0-.08.06-.16.1-.24s.05-.14.08-.2a.5.5,0,0,1,.05-.13.61.61,0,0,0,.05-.12s0-.08,0-.11a.06.06,0,0,1,.08,0s0,.06,0,.08a.28.28,0,0,0,0,.13v0a.39.39,0,0,1,0,.15.86.86,0,0,1-.06.23,1.46,1.46,0,0,1-.07.19c-.08.17-.13.35-.2.53a3.41,3.41,0,0,1-.24.6.69.69,0,0,1-.55.35.21.21,0,0,1-.17-.12.37.37,0,0,1-.07-.14,2.71,2.71,0,0,1-.09-.41L26,53a4,4,0,0,1,0-.69A2.72,2.72,0,0,1,26,52c0-.12,0-.24,0-.36s0-.19,0-.28a1.82,1.82,0,0,0,0-.33v0l-.08,0s0,0,0,0,0,0,0,.06l0,0a.79.79,0,0,0-.16.3l-.19.36a2.67,2.67,0,0,0-.14.36,2.13,2.13,0,0,0-.11.33h0a.38.38,0,0,0,0,.16.26.26,0,0,1,0,.11s0,.07,0,.11,0,0,0,0,0,.09-.05.14,0,0-.05,0-.05,0-.08,0,0,0,0,0a.26.26,0,0,0-.12.05.22.22,0,0,1-.18,0,.06.06,0,0,1-.06,0s0,0,0-.07a1.16,1.16,0,0,1,0-.18.13.13,0,0,0,0-.06s0,0,0,0a1.67,1.67,0,0,1-.05-.31s0,0,0-.06,0-.14,0-.21l0-.15c0-.1,0-.2-.05-.3a.3.3,0,0,0,0-.1v0c0-.16,0-.33,0-.51s0-.2,0-.3a.59.59,0,0,1,0-.13.08.08,0,0,1,.05-.07.36.36,0,0,1,.23,0h0l.08.05,0,.07h0a.14.14,0,0,1,.1.12.93.93,0,0,0,0,.23.36.36,0,0,1,.07.18,2.08,2.08,0,0,1,0,.25,2.83,2.83,0,0,0,0,.29s0,.07,0,.1,0,.09,0,.13a.5.5,0,0,1,0,.17l0,.14s0,0,0,0,.06-.19.1-.29l0-.09,0-.09a.57.57,0,0,1,0-.14l0-.08.15-.4.1-.2a2,2,0,0,1,.1-.21.91.91,0,0,1,.11-.16.46.46,0,0,1,.31-.15l.14,0a.17.17,0,0,1,.14,0l.13.1a.1.1,0,0,1,0,.07.22.22,0,0,0,0,.1,1.18,1.18,0,0,1,.09.46c0,.06,0,.12,0,.17C26.64,51.81,26.59,52.09,26.58,52.38Z"/><path class="cls-1" d="M29.78,54.1a.14.14,0,0,1-.05.08h0l-.11.11a.33.33,0,0,1-.14.1,1.15,1.15,0,0,1-.25.12.72.72,0,0,1-.29.06h-.06l0,0a.41.41,0,0,1-.23-.18l0,0s0,0-.07-.09a.92.92,0,0,1-.07-.4,1.85,1.85,0,0,1,.17-.7l.09-.23a3,3,0,0,1,.21-.4l.16-.25a.08.08,0,0,0,0-.08L29,52a1.38,1.38,0,0,1-.08-.27s0-.1,0-.16,0,0,0,0l-.07.11a.7.7,0,0,1-.15.19.7.7,0,0,0-.1.08l0,0a1.09,1.09,0,0,1-.31.08.4.4,0,0,1-.15,0L28,52a.42.42,0,0,1-.21-.19.92.92,0,0,1-.11-.29,1.67,1.67,0,0,1-.06-.38,1.8,1.8,0,0,1,0-.52.53.53,0,0,0,0-.12.23.23,0,0,1,.06-.12h0l.06-.11a.87.87,0,0,0,.08-.1l0,0,.1-.06,0,0,.19,0a1.93,1.93,0,0,1,.34,0h.13a0,0,0,0,1,0,0,.06.06,0,0,1-.08,0h-.15a.21.21,0,0,0-.13,0,.8.8,0,0,0-.15.21.21.21,0,0,0,0,.11s0,0,0,.05a.2.2,0,0,0,0,.11.27.27,0,0,1,0,.12.45.45,0,0,0,0,.12V51a.57.57,0,0,0,0,.13v0a1.42,1.42,0,0,0,0,.2.14.14,0,0,1,0,.09.15.15,0,0,0,0,.1.07.07,0,0,0,0,0s0,0,0,.05l0,0a.93.93,0,0,1,.05.1s0,0,.06,0a.2.2,0,0,0,.11,0,.46.46,0,0,0,.12-.12.84.84,0,0,0,.13-.27,1.42,1.42,0,0,0,0-.22h0a.9.9,0,0,0,0-.4l0-.19a1.93,1.93,0,0,0,0-.24s0,0,0-.08l0,0a.2.2,0,0,1,.11,0,.11.11,0,0,1,.09.07.52.52,0,0,0,.09.2.56.56,0,0,1,.09.19l.12.26a1.45,1.45,0,0,1,.09.22.59.59,0,0,0,0,.08l.06.18a.76.76,0,0,1,.06.2h0c.09-.17.18-.34.26-.51a3.54,3.54,0,0,0,.16-.34l0,0a.06.06,0,0,1,.05,0s0,0,.05,0a1.12,1.12,0,0,1-.05.13.25.25,0,0,0,0,.11l0,.12a.18.18,0,0,1,0,.1l-.06.13,0,0a1.17,1.17,0,0,0-.17.38l0,0-.06.05a.08.08,0,0,0,0,.08.23.23,0,0,0,0,.11l.06.15c0,.09.05.18.08.27a1.46,1.46,0,0,0,.1.34l0,.1a.5.5,0,0,1,0,.13.73.73,0,0,1,.05.2s0,.09,0,.13a.54.54,0,0,1,0,.18.28.28,0,0,0,0,.09.29.29,0,0,1,0,.13.75.75,0,0,1-.05.16v0a.15.15,0,0,1,0,.06Zm-.66-1.59a.83.83,0,0,1-.09.16l0,0c0,.07-.07.15-.1.23s-.07.17-.09.25a.38.38,0,0,0,0,.15.59.59,0,0,1-.05.19.24.24,0,0,0,0,.14.82.82,0,0,1,0,.27.33.33,0,0,0,0,.15s0,0,0,0a.09.09,0,0,0,0,.12l.06.08a.21.21,0,0,0,.11.07l.08,0a.19.19,0,0,0,.15,0,.54.54,0,0,0,.16-.14.86.86,0,0,0,.16-.38s0,0,0-.07a.22.22,0,0,1,0-.08v-.07a.85.85,0,0,1,0-.17c0-.05,0-.11,0-.17a.54.54,0,0,0,0-.1c0-.08,0-.17-.05-.26s0-.14-.05-.22a2.22,2.22,0,0,0-.11-.3Zm.67,1.24Z"/><path class="cls-1" d="M34.44,47.94l-.06.18c0,.09-.07.18-.11.27a2.44,2.44,0,0,1-.1.24c0,.07-.07.15-.1.23L34,49a.63.63,0,0,0-.07.12.14.14,0,0,0,0,.06l0,.05a.16.16,0,0,0,.08.08l.09,0a.71.71,0,0,1,.18.12l.1.09a.39.39,0,0,0,.1.08.94.94,0,0,1,.09.12l.1.1,0,0a.57.57,0,0,1,.08.13.74.74,0,0,0,0,.14.54.54,0,0,1,.05.22c0,.07,0,.14,0,.22v.16a1.16,1.16,0,0,1-.19.54,2.21,2.21,0,0,1-.22.29l-.26.24a1.37,1.37,0,0,1-.49.26l-.19,0-.2,0a.66.66,0,0,1-.52-.18.54.54,0,0,1-.1-.16.78.78,0,0,1,0-.18,1.14,1.14,0,0,1,0-.41,1.53,1.53,0,0,1,.07-.41,1.73,1.73,0,0,1,.11-.32,2.69,2.69,0,0,0,.16-.29L33,50l.12-.22v0l0,0-.26-.13A2.53,2.53,0,0,0,32,49.3l-.69-.16a1.7,1.7,0,0,1-1-.4,1.25,1.25,0,0,1-.26-.4,2.43,2.43,0,0,1-.17-.52.64.64,0,0,1,0-.41.83.83,0,0,0,.07-.13,2.45,2.45,0,0,1,.24-.52,2,2,0,0,1,.53-.6,1.5,1.5,0,0,1,.45-.24,1,1,0,0,1,.39-.08.53.53,0,0,1,.27.06.56.56,0,0,1,.15.1,2.09,2.09,0,0,1,.2.22l.16.23.17.32a.58.58,0,0,1,.06.29.82.82,0,0,1,0,.27.1.1,0,0,1-.07.08.06.06,0,0,1-.06,0,.06.06,0,0,1,0-.06.37.37,0,0,0,0-.18,3,3,0,0,0-.15-.42,2.74,2.74,0,0,0-.23-.36.12.12,0,0,0,0,0l-.23-.17a.24.24,0,0,0-.2-.06.79.79,0,0,0-.3.08l-.1.08-.29.3-.12.16a1.67,1.67,0,0,0-.23.39.79.79,0,0,0-.05.22.53.53,0,0,0,0,.22.44.44,0,0,0,0,.16,1.27,1.27,0,0,0,.12.23l.2.27a.64.64,0,0,0,.15.13,1.35,1.35,0,0,0,.32.11c.42.14.85.22,1.28.33a5.59,5.59,0,0,0,.56.12,1.35,1.35,0,0,1,.33.09l0,0,.05,0a.47.47,0,0,0,.06-.09.46.46,0,0,1,.07-.07,3.37,3.37,0,0,1,.19-.32c.06-.12.11-.23.16-.35s0,0,0-.05l0,0,0-.06,0-.07,0,0C34.32,47.78,34.41,47.82,34.44,47.94Zm-.51,2.24a1.1,1.1,0,0,0-.25-.17l-.26-.15h0v0s0,0,0,0l-.15.24-.14.22s-.05.09-.07.14l-.07.13a.14.14,0,0,0,0,.07.35.35,0,0,0,0,.06l-.09.34s0,.06,0,.09a.22.22,0,0,0,0,.08.14.14,0,0,0,0,.06.06.06,0,0,0,0,.06.49.49,0,0,0,0,.12.49.49,0,0,1,0,.12.24.24,0,0,0,.06.09l.1.08.1.07a.25.25,0,0,0,.25.05.9.9,0,0,0,.28-.08.24.24,0,0,0,.1-.05l.1,0a.7.7,0,0,0,.22-.2,1.28,1.28,0,0,0,.15-.25,1.69,1.69,0,0,0,.1-.35.92.92,0,0,0-.07-.36,1.51,1.51,0,0,0-.11-.22A.55.55,0,0,0,33.93,50.18Z"/><path class="cls-1" d="M35.81,46.3a.14.14,0,0,1,0,.06.63.63,0,0,0,.07.22s0,0,0,0,.05.13.08.18,0,.12,0,.18a3.1,3.1,0,0,1,.15.85,1.06,1.06,0,0,1-.22.69,1.3,1.3,0,0,1-.23.15h0a.72.72,0,0,1-.26,0,.67.67,0,0,1-.36-.17,3.51,3.51,0,0,1-.34-.33,2.2,2.2,0,0,0-.2-.23l0-.05a1.44,1.44,0,0,0-.18-.25c-.07-.12-.12-.23-.18-.35s0,0,0-.05a.29.29,0,0,0,0-.14v0a.55.55,0,0,1-.06-.26.43.43,0,0,1,0-.05.92.92,0,0,1,.14-.32.38.38,0,0,1,.12-.16.27.27,0,0,1,.08-.07l0,0c.28-.29.69.34.66.6,0,0,0,.08,0,.12s0,0,0,0a.23.23,0,0,1,0,.11,1.21,1.21,0,0,1-.09.2c-.06.09-.06.08,0,.16l.05.07c.23.21.48.68.8.72a.22.22,0,0,0,.16,0s0,0,.06-.05A.84.84,0,0,0,36,48l0-.26v-.11a2,2,0,0,0-.09-.35.25.25,0,0,1,0-.08,3,3,0,0,0-.11-.43.08.08,0,0,0,0-.06,1.58,1.58,0,0,1-.09-.31.08.08,0,0,1,0-.08S35.78,46.3,35.81,46.3Zm-1.21,0h0a.25.25,0,0,0-.21.1.17.17,0,0,0,0,.18.82.82,0,0,0,.12.2l0,.06a1,1,0,0,0,.12.17,1,1,0,0,1,.09.13s0,.07.07.08A.94.94,0,0,0,34.9,47a.45.45,0,0,0,0-.2,2.5,2.5,0,0,0-.07-.26.05.05,0,0,0,0,0s0,0-.06-.07l0-.05A.35.35,0,0,1,34.6,46.34Z"/><path class="cls-1" d="M37,44.66a.08.08,0,0,1,0,.05,1,1,0,0,0,.1.21v0c.06.05.07.12.11.17a1.22,1.22,0,0,0,.07.17,3,3,0,0,1,.26.83,1.08,1.08,0,0,1-.12.71,1.81,1.81,0,0,1-.21.18h0a.71.71,0,0,1-.25.06.71.71,0,0,1-.38-.12,3.73,3.73,0,0,1-.38-.28l-.23-.2-.05,0-.21-.23a3.71,3.71,0,0,1-.23-.32.08.08,0,0,1,0,0,.52.52,0,0,0-.06-.13h0a.48.48,0,0,1-.09-.26,0,0,0,0,1,0-.05.9.9,0,0,1,.09-.33.4.4,0,0,1,.1-.17l.07-.08,0,0c.24-.32.73.25.74.51a.24.24,0,0,0,0,.12s0,0,0,0,0,.07,0,.11a1.29,1.29,0,0,1-.07.21c0,.1,0,.09,0,.17l.06.05c.26.18.56.61.9.62a.24.24,0,0,0,.14,0s0,0,.05-.06a.57.57,0,0,0,0-.18V46a.43.43,0,0,0,0-.11,1.4,1.4,0,0,0-.13-.34s0,0,0-.07-.11-.28-.16-.42l0-.05a1.85,1.85,0,0,1-.13-.29.1.1,0,0,1,0-.09S37,44.66,37,44.66Zm-1.2.19h0a.24.24,0,0,0-.2.13.15.15,0,0,0,0,.18.75.75,0,0,0,.13.18.1.1,0,0,1,0,0,1.14,1.14,0,0,0,.14.16.63.63,0,0,1,.11.12.14.14,0,0,0,.08.07,1.11,1.11,0,0,0,.1-.29.41.41,0,0,0,0-.19c0-.08-.07-.16-.1-.25s0,0,0,0a.17.17,0,0,1-.06-.06l0-.05Z"/><path class="cls-1" d="M38.48,41.57s0,0,0,0l.14.19c.07.1.15.15.23.25l.42.55a2.45,2.45,0,0,1,.47.94c0,.12,0,.24,0,.36a.28.28,0,0,1-.08.21l-.06.08a.56.56,0,0,1-.54.25,1.12,1.12,0,0,1-.37-.09.19.19,0,0,0-.09,0v.1a.14.14,0,0,0,0,.08c.16.29-.1.62-.35.74a1.42,1.42,0,0,1-.29.1,1.12,1.12,0,0,1-.73-.19,1.59,1.59,0,0,1-.66-.83,1.13,1.13,0,0,1-.06-.32.93.93,0,0,1,0-.24c0-.08,0-.16,0-.23a.92.92,0,0,1,.09-.28l0,0,0,0a8.38,8.38,0,0,1-.66-.52l-.37-.37a.65.65,0,0,1-.16-.22.38.38,0,0,1,0-.33l0-.07s0-.06,0-.07a1.12,1.12,0,0,1,.25-.11.66.66,0,0,1,.55,0l.12,0a3.12,3.12,0,0,1,.62.46c.16.16.31.34.45.51l.11.16.11.15c.08.12.16.24.23.36l0,.06a1.4,1.4,0,0,0,.1.16l.07.09a3.84,3.84,0,0,0,.54.35l.28.13a.51.51,0,0,0,.4,0,.24.24,0,0,0,.13-.21,1.89,1.89,0,0,0-.23-.68,3.48,3.48,0,0,0-.51-.74c-.08-.09-.15-.2-.22-.29a1.71,1.71,0,0,0-.18-.2.3.3,0,0,1-.1-.24Zm-.7,1.49,0,0a1.25,1.25,0,0,0-.16-.22c-.11-.14-.21-.27-.32-.39a2.65,2.65,0,0,0-.29-.29,2.06,2.06,0,0,0-.73-.46l-.15,0-.21,0s-.09,0-.11.05-.07.08.12.2c0,0,1.17.8,1.2.81l.21.16.14.11c.1.07.27.2.31.13Zm.63,1.35-.06-.23a.1.1,0,0,0-.06-.08L38,44l-.37-.21c-.2-.11-.38-.23-.57-.36l-.18-.14s0,.06,0,.08a1.81,1.81,0,0,0,0,.23,1.39,1.39,0,0,0,.48.94.83.83,0,0,0,.79.24l.1-.05A.36.36,0,0,0,38.41,44.41Z"/><path class="cls-1" d="M39.41,41.11l-.37.23a1.59,1.59,0,0,1-.31.17,2.15,2.15,0,0,1-.5.19,1.08,1.08,0,0,1-.4,0l-.12-.05a.78.78,0,0,1-.33-.29.48.48,0,0,1-.07-.21.4.4,0,0,1,.07-.24l0-.06a.42.42,0,0,1,.15-.17s.09,0,.1,0a1.08,1.08,0,0,1,0,.18.19.19,0,0,0,0,.07c0,.06.06.12.12.14l.05,0a.29.29,0,0,0,.27,0h0a1.15,1.15,0,0,0,.23-.1l.07,0c.13-.08.25-.18.39-.26l.23-.13.16-.07.09,0s0-.08,0-.11l0-.05a.52.52,0,0,0-.11-.19L39.05,40a.7.7,0,0,0-.15-.23l0-.06a.06.06,0,0,1,0-.07.31.31,0,0,0,0-.1,0,0,0,0,1,.07,0v0s.06,0,.07.08a.54.54,0,0,0,0,.1s.06.08.08.12l0,.06a.16.16,0,0,1,0,.07.22.22,0,0,1,.07.09s0,.06,0,.07,0,0,0,0a.07.07,0,0,0,0,0,1,1,0,0,1,.09.13s0,0,.06,0l.09,0h.05a1.4,1.4,0,0,1,.28-.06l.13,0a.16.16,0,0,0,.12,0,1.23,1.23,0,0,1,.76.24,1.17,1.17,0,0,1,.42.58.74.74,0,0,1,0,.51.63.63,0,0,1-.33.35s0,0,0,0a.26.26,0,0,1-.09,0s0,0-.06,0a.1.1,0,0,1-.07,0,1.23,1.23,0,0,1-.83-.51.76.76,0,0,0-.08-.11l-.09-.13c-.07-.11-.13-.22-.2-.32a.21.21,0,0,1,0-.06Zm.46,0,.07.11a.47.47,0,0,0,.05.1.05.05,0,0,1,0,.05,1.2,1.2,0,0,0,.16.27.52.52,0,0,0,.1.11h0s.06.05.1.08l.12.07a.7.7,0,0,0,.27.08.1.1,0,0,0,.12-.1.17.17,0,0,0,0-.07s0,0,0,0a.51.51,0,0,0,0-.21c0-.07-.05-.14-.07-.21a.31.31,0,0,1,0-.09.33.33,0,0,0,0-.14l0-.06a.56.56,0,0,0-.24-.1,1.06,1.06,0,0,0-.39-.06H40a.59.59,0,0,0-.23,0h0A.38.38,0,0,0,39.87,41.12Z"/><circle class="cls-2" cx="23.96" cy="36.67" r="9.16" transform="translate(-16.9 52.46) rotate(-77.96)"/><path class="cls-3" d="M34.24,21.65l-1.57-1.48-.12,0a23.23,23.23,0,0,0-3,1.4l.34-3.2-1.82-1.17-.37,4.4,0,.23,0,.24,0,.23,0,.24,0,.23v0l-.29.21-.31.23-.29.23,0,0-.24.21-.27.23-.13.13h0l0-.26,0-.26,0-.27,0-.26,0-.27,0-.26L25.35,19l2.29-3.92-2.24-.43L24,17.07l-1.42-2.44-2.24.43L22.62,19l-.47,3.55,0,.26,0,.27,0,.26,0,.27,0,.26,0,.26L21.81,24c-.08-.08-.18-.15-.27-.23l-.24-.21,0,0-.3-.23a3.55,3.55,0,0,0-.31-.23l-.28-.21v0l0-.23,0-.24,0-.23,0-.24,0-.23-.37-4.4-1.82,1.17.33,3.2a23.86,23.86,0,0,0-3-1.4l-.13,0-1.56,1.48-.17.16.2.07.11.05a3.43,3.43,0,0,1,.45.19l.51.23.47.24.45.23a4.49,4.49,0,0,1,.42.24l.4.23.39.23.36.24.08,0L17,24l-.57.24-.57.23-.58.24-.57.23-.57.24h0l.28.23.28.24.28.23.28.24.28.23.25.22.5-.22.54-.23.54-.24.54-.23.55-.24.54-.23.16-.08.09.08.27.23.26.24.24.23.24.24.22.23.22.23.2.24.2.23.18.24.18.23a.35.35,0,0,1,.05.08l0,.22,0,.27,0,.26,0,.26,0,.27,0,.26,0,.27,0,.26,0,.26,0,.27,0,.26,0,.27L21,31l0,.27,0,.26,0,.26,0,.27,0,.26h0v13a9.1,9.1,0,0,0,3.1.54,9,9,0,0,0,3.16-.56v-13l0-.26,0-.27,0-.26,0-.26,0-.27,0-.26,0-.27,0-.26,0-.27,0-.26,0-.26,0-.27,0-.26,0-.27,0-.26,0-.26,0-.27,0-.22.06-.08.17-.23.19-.24.19-.23.21-.24.21-.23.23-.23.23-.24.25-.23.26-.24.27-.23.08-.08.17.08.54.23.54.24.54.23.54.24.55.23.49.22.26-.22.28-.23.28-.24.28-.23.28-.24.28-.23h0l-.57-.24-.58-.23-.57-.24-.57-.23L31,24l-.44-.18.08,0,.37-.24.38-.23.4-.23.43-.24.44-.23.47-.24.51-.23a3.2,3.2,0,0,1,.46-.19l.11-.05.2-.07Z"/><path class="cls-4" d="M24,45.83a9.16,9.16,0,0,0,7.65-14.17C27.51,32.81,24.31,38.64,24,45.83Z"/><path class="cls-5" d="M16.29,31.66a9.16,9.16,0,0,0,7.65,14.17C23.62,38.64,20.42,32.81,16.29,31.66Z"/><path class="cls-6" d="M1.58,26.18a3.09,3.09,0,0,0,1.93.31,3.05,3.05,0,0,0,1.61-1.11,3.07,3.07,0,0,0-1.93-.31A3.17,3.17,0,0,0,1.58,26.18Z"/><path class="cls-7" d="M0,22.07A3.1,3.1,0,0,0,1.72,23a3.05,3.05,0,0,0,1.88-.52,3,3,0,0,0-1.72-.92A3,3,0,0,0,0,22.07Z"/><path class="cls-7" d="M7,32.21a3.08,3.08,0,0,0,1.64-1.05,3.08,3.08,0,0,0,.46-1.9,3.05,3.05,0,0,0-1.64,1.06A3,3,0,0,0,7,32.21Z"/><path class="cls-7" d="M5.8,17.59a3.06,3.06,0,0,0,1.12,1.6,3.07,3.07,0,0,0,1.91.39A3.06,3.06,0,0,0,7.71,18,3.06,3.06,0,0,0,5.8,17.59Z"/><path class="cls-2" d="M2,13.63a3.09,3.09,0,0,0,.91,1.73A3.09,3.09,0,0,0,4.74,16a3.09,3.09,0,0,0-.91-1.73A3.09,3.09,0,0,0,2,13.63Z"/><path class="cls-2" d="M19.21,1.49a3.1,3.1,0,0,0-.56,1.88,3,3,0,0,0,.89,1.73,3.06,3.06,0,0,0,.56-1.87A3.16,3.16,0,0,0,19.21,1.49Z"/><path class="cls-6" d="M6.37,7.71a3,3,0,0,0,.14,1.94A3.12,3.12,0,0,0,8,11a3.1,3.1,0,0,0-.15-2A3,3,0,0,0,6.37,7.71Z"/><path class="cls-7" d="M14.19,2.65a3.09,3.09,0,0,0-.34,1.92,3.06,3.06,0,0,0,1.09,1.62,3,3,0,0,0,.33-1.92A3,3,0,0,0,14.19,2.65Z"/><path class="cls-2" d="M9.69,4.38a3.08,3.08,0,0,0,0,2A3.14,3.14,0,0,0,11,7.76a3,3,0,0,0,0-1.95A3,3,0,0,0,9.69,4.38Z"/><path class="cls-6" d="M6.29,12.47a3,3,0,0,0,.43,1.9,3,3,0,0,0,1.63,1.08,3.08,3.08,0,0,0-.44-1.9A3.1,3.1,0,0,0,6.29,12.47Z"/><path class="cls-7" d="M9.87,9.78a3.06,3.06,0,0,0,0,2,3.05,3.05,0,0,0,1.36,1.39,3.07,3.07,0,0,0,0-2A3.15,3.15,0,0,0,9.87,9.78Z"/><path class="cls-2" d="M11.47,32.14a3.05,3.05,0,0,0,1.14-1.58,3.12,3.12,0,0,0-.28-1.94,3.11,3.11,0,0,0-1.13,1.59A3.06,3.06,0,0,0,11.47,32.14Z"/><path class="cls-6" d="M12.48,23.22a3.08,3.08,0,0,1-1.9-.46,3.13,3.13,0,0,1-1.06-1.64,3.08,3.08,0,0,1,1.9.46A3.05,3.05,0,0,1,12.48,23.22Z"/><path class="cls-6" d="M14.31,10.68A3,3,0,0,1,13,9.25,3,3,0,0,1,13,7.3a3.09,3.09,0,0,1,1.34,1.42A3.15,3.15,0,0,1,14.31,10.68Z"/><path class="cls-2" d="M12,18.52a3,3,0,0,1-1.53-1.2,3,3,0,0,1-.29-1.93,3.12,3.12,0,0,1,1.54,1.2A3.08,3.08,0,0,1,12,18.52Z"/><path class="cls-2" d="M8.89,23.56A3.1,3.1,0,0,1,7,23.83a3.05,3.05,0,0,1-1.58-1.14,3.06,3.06,0,0,1,1.93-.27A3.1,3.1,0,0,1,8.89,23.56Z"/><path class="cls-6" d="M4.61,19.63a3.08,3.08,0,0,1-1.95,0,3.09,3.09,0,0,1-1.42-1.34,3.08,3.08,0,0,1,2,0A3,3,0,0,1,4.61,19.63Z"/><path class="cls-6" d="M15.08,16.84a3.07,3.07,0,0,0,0-1.95,3.1,3.1,0,0,0-1.38-1.38,3.07,3.07,0,0,0,0,2A3,3,0,0,0,15.08,16.84Z"/><path class="cls-6" d="M10.67,25.75A3,3,0,0,1,9.18,27a3.06,3.06,0,0,1-1.95-.11,3,3,0,0,1,1.49-1.26A3,3,0,0,1,10.67,25.75Z"/><path class="cls-2" d="M5.92,28.22a3,3,0,0,1-1.16,1.56,3,3,0,0,1-1.92.34A3.05,3.05,0,0,1,4,28.55,3,3,0,0,1,5.92,28.22Z"/><path class="cls-6" d="M16.94,5.85a3,3,0,0,0-.2,1.94,3.09,3.09,0,0,0,1.2,1.55,3.08,3.08,0,0,0,.19-1.95A3,3,0,0,0,16.94,5.85Z"/><path class="cls-6" d="M22.27,4.56a3.11,3.11,0,0,0-.82,1.77,3.09,3.09,0,0,0,.63,1.85,3.08,3.08,0,0,0,.82-1.77A3,3,0,0,0,22.27,4.56Z"/><path class="cls-2" d="M24.08,9.65a3.11,3.11,0,0,0-.82,1.77,3.09,3.09,0,0,0,.63,1.85,3,3,0,0,0,.82-1.77A3.09,3.09,0,0,0,24.08,9.65Z"/><path class="cls-6" d="M24.08,0a3.11,3.11,0,0,0-.82,1.77,3.09,3.09,0,0,0,.63,1.85,3,3,0,0,0,.82-1.77A3.09,3.09,0,0,0,24.08,0Z"/><path class="cls-7" d="M25.72,4.56a3.06,3.06,0,0,0-.81,1.77,3,3,0,0,0,.63,1.85,3.1,3.1,0,0,0,.81-1.77A3,3,0,0,0,25.72,4.56Z"/><path class="cls-7" d="M20.44,12.39a3,3,0,0,1-.92-1.72A3.08,3.08,0,0,1,20,8.79,3.08,3.08,0,0,1,21,10.51,3.05,3.05,0,0,1,20.44,12.39Z"/><path class="cls-2" d="M17.59,14.37a3.12,3.12,0,0,1-1.44-1.32,3.1,3.1,0,0,1-.13-2,3.07,3.07,0,0,1,1.44,1.32A3.1,3.1,0,0,1,17.59,14.37Z"/><path class="cls-6" d="M46.39,26.18a2.61,2.61,0,0,1-3.53-.8,3.05,3.05,0,0,1,1.92-.31A3.11,3.11,0,0,1,46.39,26.18Z"/><path class="cls-2" d="M48,22.07a2.65,2.65,0,0,1-3.61.39A2.63,2.63,0,0,1,48,22.07Z"/><path class="cls-7" d="M41,32.21a3.08,3.08,0,0,1-1.64-1.05,3.08,3.08,0,0,1-.46-1.9A2.63,2.63,0,0,1,41,32.21Z"/><path class="cls-6" d="M46,13.63a3,3,0,0,1-.9,1.73,3.11,3.11,0,0,1-1.85.63,3,3,0,0,1,.9-1.73A3.09,3.09,0,0,1,46,13.63Z"/><path class="cls-2" d="M28.77,1.49a3.05,3.05,0,0,1,.55,1.88,3.06,3.06,0,0,1-.88,1.73,3.06,3.06,0,0,1-.56-1.87A3.09,3.09,0,0,1,28.77,1.49Z"/><path class="cls-7" d="M41.61,7.71a3.07,3.07,0,0,1-.15,1.94A3.07,3.07,0,0,1,40,11a3.06,3.06,0,0,1,.14-2A3.07,3.07,0,0,1,41.61,7.71Z"/><path class="cls-6" d="M33.79,2.65a3,3,0,0,1,.33,1.92A3.07,3.07,0,0,1,33,6.19a3.09,3.09,0,0,1-.34-1.92A3.06,3.06,0,0,1,33.79,2.65Z"/><path class="cls-6" d="M38.29,4.38a3,3,0,0,1,0,2A3.09,3.09,0,0,1,37,7.76a3.08,3.08,0,0,1,0-1.95A3.08,3.08,0,0,1,38.29,4.38Z"/><path class="cls-6" d="M41.69,12.47a3.11,3.11,0,0,1-.43,1.9,3,3,0,0,1-1.63,1.08,3,3,0,0,1,.43-1.9A3.11,3.11,0,0,1,41.69,12.47Z"/><path class="cls-2" d="M38.1,9.78a3.1,3.1,0,0,1,0,2,3.05,3.05,0,0,1-1.36,1.39,3.07,3.07,0,0,1,0-2A3.1,3.1,0,0,1,38.1,9.78Z"/><path class="cls-2" d="M36.51,32.14a3.05,3.05,0,0,1-1.14-1.58,3.08,3.08,0,0,1,.27-1.94,3.1,3.1,0,0,1,1.14,1.59A3.06,3.06,0,0,1,36.51,32.14Z"/><path class="cls-6" d="M35.5,23.22a2.63,2.63,0,0,0,3-2.1,2.62,2.62,0,0,0-3,2.1Z"/><path class="cls-7" d="M33.67,10.68A3.08,3.08,0,0,0,35,9.25,3.08,3.08,0,0,0,35,7.3a3,3,0,0,0-1.33,1.42A3.07,3.07,0,0,0,33.67,10.68Z"/><path class="cls-7" d="M35.74,18.74a3,3,0,0,0,1.54-1.2,3,3,0,0,0,.29-1.93A3.08,3.08,0,0,0,36,16.81,3.12,3.12,0,0,0,35.74,18.74Z"/><path class="cls-7" d="M39.09,23.56a3.06,3.06,0,0,0,1.93.27,3.1,3.1,0,0,0,1.59-1.14,2.62,2.62,0,0,0-3.52.87Z"/><path class="cls-6" d="M43.36,19.63a3.11,3.11,0,0,0,2,0,3,3,0,0,0,1.41-1.34,3.08,3.08,0,0,0-1.95,0A3,3,0,0,0,43.36,19.63Z"/><path class="cls-6" d="M32.9,16.84a3.07,3.07,0,0,1,0-1.95,3,3,0,0,1,1.38-1.38,3.07,3.07,0,0,1,0,2A3.1,3.1,0,0,1,32.9,16.84Z"/><path class="cls-6" d="M37.31,25.75a2.65,2.65,0,0,0,3.44,1.14,2.62,2.62,0,0,0-3.44-1.14Z"/><path class="cls-2" d="M42.05,28.22a2.66,2.66,0,0,0,3.09,1.9,2.62,2.62,0,0,0-3.09-1.9Z"/><path class="cls-6" d="M31,5.85a3.1,3.1,0,0,1,.2,1.94A3.09,3.09,0,0,1,30,9.34a3.13,3.13,0,0,1-.2-1.95A3.09,3.09,0,0,1,31,5.85Z"/><path class="cls-6" d="M27.53,12.39a3,3,0,0,0,.92-1.72,3.08,3.08,0,0,0-.52-1.88A3.08,3.08,0,0,0,27,10.51,3.05,3.05,0,0,0,27.53,12.39Z"/><path class="cls-2" d="M30.39,14.37a3.07,3.07,0,0,0,1.43-1.32,3,3,0,0,0,.13-2,3.07,3.07,0,0,0-1.43,1.32A3,3,0,0,0,30.39,14.37Z"/><path class="cls-2" d="M42,17.59a3.06,3.06,0,0,1-1.12,1.6,3.07,3.07,0,0,1-1.91.39,2.63,2.63,0,0,1,3-2Z"/></g></g></svg>